<?xml version="1.0" standalone="no"?>
<!DOCTYPE svg PUBLIC "-//W3C//DTD SVG 1.1//EN" "http://www.w3.org/Graphics/SVG/1.1/DTD/svg11.dtd" >
<svg xmlns="http://www.w3.org/2000/svg">
<metadata>
This is a custom SVG webfont generated by Font Squirrel.
Copyright   :  Copyright 1998 Hallmark Cards Inc All rights reserved This font is authorized for use by official Hallmark Cards licensees only and may not be copied or distributed Designed by Megan Walsh
</metadata>
<defs>
<font id="McBooHmkRegular" horiz-adv-x="1378" >
<font-face units-per-em="2048" ascent="1638" descent="-410" />
<missing-glyph horiz-adv-x="831" />
<glyph horiz-adv-x="0" />
<glyph horiz-adv-x="831" />
<glyph unicode=" "  horiz-adv-x="831" />
<glyph unicode="&#x09;" horiz-adv-x="831" />
<glyph unicode="&#xa0;" horiz-adv-x="831" />
<glyph unicode="!" horiz-adv-x="1101" d="M219 61q49 121 129 121q41 0 77 -26.5t36 -67.5q0 -63 -111 -123q-31 0 -74 37q-28 30 -57 59zM319 408q0 256 89 563q35 121 184 538q84 233 258 701q20 4 55 4h45q29 -2 41 -2q115 -47 96 -154q-104 -236 -325 -702q-57 -104 -170 -322q-94 -188 -195 -465 q-16 -55 -53 -161q-2 -10 -10 -11z" />
<glyph unicode="&#x22;" horiz-adv-x="892" d="M297 1513q0 20 3 60.5t3 50.5q4 121 33 358q31 6 59 7q76 0 109 -45v-68q0 -57 -154 -399q-8 -2 -16 -2q-37 -1 -37 38zM643 1513q0 301 39 469q29 6 57 7q78 0 111 -45v-68q-47 -135 -160 -399q-8 -2 -14 -2q-33 -1 -33 38z" />
<glyph unicode="#" horiz-adv-x="2060" d="M-49 1014q0 20 24 30q465 76 889 103l19 20q43 283 151 725q47 39 92 39q39 0 66 -33q-20 -135 -74 -370q-59 -262 -78 -369l13 -8h336l18 16q43 225 129 674q14 10 37 10q90 0 90 -82q0 -27 -12 -108l-76 -506q33 -16 174 -35q127 -14 203 -67v-9l-385 -4 q-16 -20 -16.5 -65t-10.5 -64l27 -18q143 0 309 -74q35 -43 35 -69q0 -12 -2 -25q-125 -102 -387 -188l-19 -27l-20 -381q-2 -20 -37 -20q-139 0 -139 161q0 33 6 96.5t6 94.5q0 47 0 31l16 221l-8 12q-188 -16 -197 -20q-117 -12 -196 -35q-150 -641 -150 -846 q0 -47 13 -80q14 0 32 29q8 -6 9 -21q0 -8 -9 -33q-6 -23 0 -34q-10 -18 -36 -39q-80 18 -84 71q-12 94 -13 185q0 131 33 368q37 254 41 373h-25q-37 0 -110.5 -10t-106.5 -10q-80 0 -133 32q-12 16 -12 58l4 45q61 20 111 18h30l9 -6q127 6 268 49q35 78 45 195 q-37 6 -78 6q-137 0 -385 -41q-287 -47 -393 -53q-43 12 -43 88zM973 850l373 35q27 27 34 149q-186 6 -198 6q-102 0 -174 -14q-2 -29 -18.5 -86t-16.5 -90zM1503 616q6 -2 17 -2q41 0 122 41q100 49 125 58q-45 49 -112 49q-119 0 -127 -23q-7 -43 -25 -123z" />
<glyph unicode="$" horiz-adv-x="1611" d="M129 1124q0 178 254 353q113 78 422 227q18 94 72 278q27 6 41 7q29 0 40 -31q18 -12 19 -39q0 -20 -10.5 -61t-10.5 -62q0 -18 15 -18q61 0 90 30q10 6 31 82q12 14 20 101q2 68 49 67q98 0 127 -76q0 -18 -8 -54t-6 -56v-8q27 4 53 4q102 0 266 -64q63 -27 64 -90 q0 -31 -74 -45q-88 -14 -96 -20h-12q-8 0 -24.5 -4.5t-25.5 -4.5q29 20 78 64l-10 4q-86 -14 -264 -39q-94 -215 -148 -987q227 -145 228 -311q0 -111 -82 -209q-41 -55 -168 -160q-25 -258 -25 -272q-20 -158 -57 -267l-21 13q-4 156 -24 471q-201 -41 -219 -41l-17 -21 q-14 -139 -14 -274q-6 -8 -6 -25q0 -8 3 -25.5t3 -27.5q0 -2 -4 -8q-12 0 -41 30.5t-35 47.5q-20 53 -20 211q0 57 2 127q-49 33 -103 174q10 51 29 51q12 0 20 -16q0 -16 25 -50q29 -41 35 -53q20 86 67 434q12 84 33 256q-176 59 -354 121q-207 86 -207 266zM240 1034 q23 -43 131 -82q184 -68 331 -100q20 213 68 637q-160 -61 -326 -176q-211 -152 -204 -262v-17zM725 53q111 6 199 60q-12 510 -12.5 534.5t-100.5 24.5q-8 -14 -45 -292t-41 -327zM819 805l4 -19q47 -16 86 -16q4 0 15 2q20 240 80 717q-12 27 -13 35q0 25 21 37q2 8 2 14 q0 18 -29 18q-53 0 -82 -24q-27 -147 -47 -381q-27 -317 -37 -383zM1067 229q125 78 125 226q0 70 -105 127q-20 -100 -20 -234v-119z" />
<glyph unicode="%" horiz-adv-x="2060" d="M188 1040q0 80 58 146q47 59 155 149q127 104 177 105q14 0 27 -18.5t20 -18.5q6 0 18 12q92 53 213 53q143 0 188 -92q-10 -63 -67 -123q-53 -47 -111 -94q-291 -248 -485 -301q-78 12 -131 60q-62 48 -62 122zM336 1071q0 -27 24 -88q231 88 459 315q-10 0 -52 17.5 t-54 17.5q-184 0 -342 -213q-31 -41 -35 -49zM377 -6q0 31 145 303q41 74 195 319q457 725 971 1239q35 0 72.5 -25.5t37.5 -60.5q0 -8 -2 -18q-276 -303 -743 -913q-127 -166 -297 -443q-238 -375 -287 -448q-35 -6 -45 -6q-47 0 -47 53zM903 59q0 96 129 336 q82 154 250 336q266 287 291 313q41 14 57 15q20 0 33 -15q25 -4 62.5 -41.5t76.5 -29.5q59 -33 119.5 -67t60.5 -120q0 -115 -151 -317q-41 -47 -117 -145q-295 -352 -516 -439q-68 -27 -86 -26q-113 0 -147 47q-62 87 -62 153zM1044 61q0 -16 23 -55q39 0 119 47 q29 18 133 101q424 348 530 702l-12 21h-18q-47 2 -166 -26t-291 -226q-215 -254 -297 -498q-21 -60 -21 -66z" />
<glyph unicode="&#x26;" horiz-adv-x="1957" d="M150 72q10 37 133 176l114 114q217 221 320 363q-29 27 -35 57q-113 102 -227 176q-66 72 -133.5 146t-67.5 178q0 63 12 92q10 20 58 74q221 262 708 375q133 33 275 32q233 0 301 -157q2 -125 -88 -271q-39 -61 -181 -233q-37 -39 -104 -113q-102 -117 -303 -356 l20 -35q154 -129 242 -166q113 51 319 168q-12 31 -77 47q4 25 24 25q135 0 180 -12q100 -29 97 -123v-15q-129 -72 -383 -213q250 -193 731 -436v-12q-127 6 -422 160q-215 111 -410 237q-188 -82 -569 -237q-92 -33 -270 -105q-86 -37 -105 -37q-47 0 -84.5 34t-74.5 67z M389 1274q0 -147 193 -291q10 -16 103 -85t120 -81q27 20 94.5 93t77.5 89q88 86 215 242q162 199 209 252q2 6 53 102q35 66 33 109v16l-27 35q-80 16 -162 17q-240 0 -536 -152q-373 -190 -373 -346zM522 254q217 70 545 215q-27 45 -94.5 96t-116.5 70 q-117 -125 -334 -381z" />
<glyph unicode="'" horiz-adv-x="774" d="M467 1513q0 301 37 469q31 6 59 7q76 0 109 -45v-68q-47 -135 -158 -399q-10 -2 -16 -2q-31 -1 -31 38z" />
<glyph unicode="(" horiz-adv-x="813" d="M219 297q0 512 23 643q53 281 141 463q41 90 139 274q43 92 115 219q18 20 61 21q133 0 152 -68q-12 -59 -68 -141q-47 -61 -92 -127q-12 -18 -33 -57q-47 -76 -127 -215q-35 -63 -133 -391q-74 -246 -73 -785q0 -180 4 -205q8 -49 104 -163.5t96 -141.5q0 -20 -36 -47 q-10 -4 -25 -4q-66 0 -184 131q-64 252 -64 594z" />
<glyph unicode=")" horiz-adv-x="827" d="M215 -362q0 39 35 108q43 82 47 109l6 43q31 115 80 338q104 483 104 864q0 168 -32 422q-33 281 -80 401l8 19q113 0 186 -119q86 -520 86 -844q0 -256 -32 -389q-25 -82 -72 -246q-10 -63 -43 -182q-10 -20 -27 -62q-25 -80 -92 -223q-45 -201 -45 -260q0 -31 4 -59 q-14 -18 -45 -19q-29 0 -58.5 32t-29.5 67z" />
<glyph unicode="*" horiz-adv-x="1351" d="M221 1845q0 4 6 13q76 39 222 57q174 23 229 41q-76 68 -203 221q80 20 55 21q59 0 213 -154l19 8q68 98 137 199q84 111 168 170q33 -14 100 -41q-29 -66 -123 -173.5t-124 -170.5q20 2 45.5 -17.5t40.5 -19.5q8 0 29.5 3t29.5 3q61 0 268 -49q33 -33 33 -53 q0 -6 -4 -13q-47 -18 -156 -26q-154 -8 -162 -9q-14 -20 -12 -36q2 -10 76 -123q57 -86 57 -121q0 -25 -39 -58.5t-65 -33.5q-4 0 -17 4q-25 55 -112 147q-119 117 -127 135.5t-29 18.5q-10 0 -25.5 -5t-25.5 -5q-12 -8 -164 -191q-100 -115 -207 -131q-12 10 -39 27 q135 145 213 266l-14 12q-100 -10 -121 -10q-96 0 -145 53q-27 31 -27 41z" />
<glyph unicode="+" horiz-adv-x="1423" d="M94 623q6 47 25 108h61l221 -8h168l19 14q14 172 43 531q35 18 51 18q63 0 109.5 -36t46.5 -97q0 -29 -13 -80q-12 -59 -14 -80q-2 -29 -18 -121q-14 -68 -11 -116v-31l17 -12q39 4 78 0q53 -2 75 -2q51 0 92 -3t91 -3q94 0 146 6t34 6q14 0 12 -21q0 -14 -59 -53 q-16 -6 -123 -25q-68 -8 -184.5 -14t-176.5 -6q-14 -14 -18 -74l-35 -450q-2 -72 -49 -72q-66 0 -117 70q0 70 8.5 210t8.5 210q0 51 -4 96q-8 4 -164 4q-92 0 -207 -2h-80q-15 0 -33 33z" />
<glyph unicode="," horiz-adv-x="774" d="M174 -461q41 121 82 240q47 141 59 248q-88 76 -88 112q0 117 142 117q133 0 133 -147q0 -129 -109 -306q-90 -143 -211 -264h-8z" />
<glyph unicode="-" horiz-adv-x="1351" d="M207 664l82 129q82 4 172 4q111 0 314.5 -7.5t316.5 -7.5q8 -6 31.5 -39.5t23.5 -44.5q0 -16 -39 -34q-55 -27 -57 -27q-158 -12 -494 -33q-74 -39 -309 -53q-45 19 -41 113z" />
<glyph unicode="." horiz-adv-x="778" d="M213 33q0 141 102 301q145 -31 187 -98v-15q0 -59 -97.5 -126.5t-158.5 -67.5q-19 0 -33 6z" />
<glyph unicode="/" horiz-adv-x="1394" d="M156 -68q39 176 139 333t229 423q164 342 211 426q143 268 285 541q172 309 315 522h27q92 0 92 -72q0 -20 -74 -168q-98 -170 -293 -507q-379 -668 -550 -1094q-2 -100 -66 -248q-74 -180 -84 -244q-27 -25 -72 -24q-55 0 -90.5 36.5t-68.5 75.5z" />
<glyph unicode="0" horiz-adv-x="1257" d="M74 348q0 180 71 402q29 88 148 380q-6 4 -12 5l-41 -17q2 -61 -47 -61q-27 0 -66 38t-39 64q0 39 141 80q172 47 185 55q31 4 63 4q47 0 242 -24q260 -29 395 -187q41 -47 53 -73q25 -55 25 -185q0 -354 -313 -622q-274 -236 -492 -236q-74 0 -113 15q-53 16 -114.5 90 t-77.5 131q-8 43 -8 141zM195 307q0 -158 92 -241q33 -16 63 -17q80 0 193 64q215 117 360 317q158 219 158 449q0 80 -10 125q-27 109 -160 163q-106 47 -236 47q-72 0 -125 -22q-129 -178 -229 -422q-106 -273 -106 -463z" />
<glyph unicode="1" horiz-adv-x="1087" d="M80 47q0 55 33 76l364 27q-33 346 -33 555q0 201 25 376q18 139 18 205v53q-6 -6 -186 -168q-147 -133 -174 -133q-35 27 -35 56q0 14 8 24q33 33 93 90q158 160 215 211q150 137 221 176q16 -20 80 -49q55 -10 63 -57q-117 -565 -117 -1100q0 -88 2 -174q18 -8 39 -35 l-12 -30q45 4 94 4q121 0 236 -9l73 -6v-6q-8 -14 -19 -35.5t-57 -19.5t-59 -19q-49 -4 -147 -14q-41 -6 -80 -12q-49 -8 -55 -33q-14 -2 -31 -2q16 0 -84 10q-68 6 -322 10q-37 0 -100 2q-53 7 -53 27z" />
<glyph unicode="2" horiz-adv-x="1650" d="M55 106q520 244 785 437q25 35 80 75q74 53 88 66q211 199 299 320q150 205 149 397q0 94 -70 135q-125 74 -305 74q-109 0 -319 -43q-233 -51 -522 -215q-6 -6 -17 -6q-23 0 -50.5 44t-27.5 66q0 16 5 33q348 207 575 207q-16 0 94 20q98 14 187 15q281 0 462 -203 q94 -102 95 -219q0 -74 -60 -209q-37 -53 -117 -154q-41 -47 -130 -137t-242 -207q-127 -100 -252 -201h20l496 121q68 -45 211 -114q41 -37 94 -121q-6 -27 -35 -31q14 4 -53 4q-6 0 -27 -6q-229 -47 -690 -162q-68 -20 -475 -172q-10 -2 -33 -2q-41 0 -102.5 37t-87 71.5 t-25.5 79.5z" />
<glyph unicode="3" horiz-adv-x="1388" d="M100 965q0 43 60 82q47 25 94 51q14 10 47 41.5t102 95.5q121 117 211 207q-70 -6 -230.5 -61.5t-174.5 -55.5q-27 0 -50.5 37t-23.5 63q0 84 51 97q37 8 330 100q248 80 303 80q31 0 105 -53q41 -55 41 -76v-12l-242 -185q-139 -104 -221 -202q55 6 114 6 q276 0 478 -103q254 -131 254 -379t-261 -542q-188 -217 -464 -416q-135 -94 -240 -94q-96 0 -133 71q-23 59 -47 121q10 338 995 993q0 98 -168 154q-125 39 -252 39q-238 0 -575 -152q-14 -6 -27 -6q-31 0 -53.5 32t-22.5 67zM344 -195q139 35 293 168q6 2 135 127 q358 340 408 590q-100 -45 -197 -135q-12 -18 -39 -51q-61 -76 -186 -182q-147 -125 -193 -172q-98 -100 -141 -156q-76 -103 -80 -189z" />
<glyph unicode="4" horiz-adv-x="1417" d="M66 764q2 6 2 32.5t20 26.5q53 0 80 62q39 82 51 94q57 106 158 321q27 18 59 19q45 0 94 -31q41 -55 48 -96q-59 -94 -144 -293q121 0 238 25l24 32q41 162 140 451q102 313 141 448q195 -25 194 -133q0 -29 -18 -75q-29 -72 -29 -74q-78 -205 -200 -617l16 -22 q47 10 193 16q121 2 188 27l25 -6v-6q0 -8 15 -26.5t15 -51.5q0 -55 -37 -111q-92 -57 -241 -80q-127 -18 -254 -34l-25 -25q-74 -266 -235 -797q-35 -117 -74 -315q-43 -254 -59 -318q4 14 4 -59q0 -33 -25 -45q-47 31 -47 135q0 86 41 408q59 440 180 958l-12 19 q-63 0 -189.5 -33t-189.5 -33q-147 0 -147 207z" />
<glyph unicode="5" horiz-adv-x="1423" d="M33 1266q0 41 3 87t19 72q51 -4 111 -4q143 0 434 10.5t434 10.5q170 0 222.5 -8.5t70.5 -65.5q2 -2 19 -96q-6 -27 -15.5 -56.5t-32.5 -41.5q-293 -2 -874 -27q-23 -20 -37 -76q-20 -68 -31.5 -84t-11.5 -35l6 -6q125 33 248 33q231 0 393 -107q186 -127 187 -348 q0 -102 -64 -262q-20 -55 -70 -127q-68 -94 -79 -121l-148 -135q-94 -82 -172 -82q389 479 389 778q0 182 -88 254q-59 47 -196 48q-125 0 -273 -46q-174 -53 -223 -135h-12q-49 -4 -97 43q-33 45 -69 90q25 96 57 295q-71 31 -100 142z" />
<glyph unicode="6" horiz-adv-x="1511" d="M74 381l2 14l86 74q-2 59 -2 121q0 516 364 1288q10 27 17.5 56.5t29.5 31.5q172 -61 226 -170v-59q-152 -209 -273 -503t-162 -550l13 -22q115 158 289 262q186 115 368 114q18 -4 55 -14q258 -80 326 -238q23 -49 23 -129q0 -291 -277 -507q-256 -197 -557 -197 q-168 0 -307 170q-18 33 -55 84q-12 14 -38 20t-40 27q-88 55 -88 127zM342 283q18 -23 23.5 -89.5t37.5 -93.5q51 -41 185 -41q176 0 426 156q311 188 311 469q0 74 -18 133q-12 35 -59.5 72t-82.5 37h-84q-244 0 -426 -133q-145 -104 -301 -338z" />
<glyph unicode="7" horiz-adv-x="1282" d="M80 1628q0 20 8 43l6 4q78 6 416 8q254 4 414 33q59 82 102 193q125 -33 156 -51q59 -39 71 -138l-2 9q4 -20 4 -48q0 -84 -61 -86q-221 -410 -418 -923q-152 -395 -284 -1067q-20 -14 -48 -15q-51 0 -124.5 58.5t-73.5 111.5q0 10 8 45q43 156 135 465q195 659 397 1119 q57 127 80 206q-176 -8 -526 -22l-240 -4q-20 24 -20 59z" />
<glyph unicode="8" horiz-adv-x="1087" d="M61 -61q0 150 113 389q8 23 193 364q47 72 120 217q-301 393 -301 695q0 227 121 315q100 72 336 72h139q76 0 156 -101q20 -27 106 -166q12 -20 13 -41q0 -12 -13 -34l-262 -496q-31 -66 -98 -188q-33 -53 -33 -78q0 -49 47 -123q39 -55 74 -113q6 -8 33 -67 q18 -35 53 -107q109 -244 109 -452q0 -227 -134.5 -367.5t-361.5 -140.5q-47 0 -96 6q-78 37 -154 76q-80 51 -115 127q-45 107 -45 213zM145 -133q0 -59 15 -115q80 -47 168 -47q197 0 341 134t144 333q0 250 -223 580l-25 18q-8 -33 -41 -57q-43 -31 -49 -41 q-35 -41 -227 -449q-103 -217 -103 -356zM348 1413q0 -92 60 -205q23 -41 116 -176q27 18 78 55q90 199 277 594l-35 23q-227 -6 -326 -41q-170 -66 -170 -250z" />
<glyph unicode="9" horiz-adv-x="1570" d="M29 1047q0 125 47 192q12 20 71 86q250 270 799 553q18 14 58 40t167 26q33 -25 104 -101t93 -112q25 0 33 -11q76 -59 76 -100q0 2 -15 -66l-28 -129q-188 -838 -248 -1867q-31 -29 -86 -29q-43 0 -91 37t-75 45q57 758 137 1329q-258 -178 -575 -178q-276 0 -404 125 q-39 39 -51 68t-12 92zM102 1008q33 -70 140 -109q86 -33 176 -33q379 0 674 193q33 229 63 416q12 76 49 221l74 24q-51 51 -117 68q-301 -90 -631 -295q-416 -264 -428 -485z" />
<glyph unicode=":" horiz-adv-x="774" d="M227 127q0 100 66 156q49 -12 100 -27q55 -23 56 -74q0 -23 -24 -46t-44 -42q-37 -41 -141 -41q-13 33 -13 74zM242 684q0 35 28 78q27 31 54 67q59 -12 69 -16q37 -10 56 -43q-12 -53 -25 -108q-16 -43 -96 -44q-25 0 -39 7q-27 18 -43 53z" />
<glyph unicode=";" horiz-adv-x="774" d="M121 -344q133 399 133 403q0 20 -26.5 58.5t-26.5 58.5q0 33 17.5 61.5t47.5 24.5q31 18 74 19q150 0 149 -140q0 -135 -111.5 -285.5t-238.5 -205.5zM250 678q0 92 65 147q61 0 113 -22q68 -31 68 -80q0 -33 -56.5 -62.5t-89.5 -29.5q-100 0 -100 47z" />
<glyph unicode="&#x3c;" horiz-adv-x="1107" d="M88 614v9q47 88 381 299t424 211q18 0 59 -14.5t45 -31.5q2 -10 -51 -43l-69 -40q-487 -332 -527 -416q-2 -6 0 -17q20 -70 264 -305q121 -119 244 -237q8 -31 -41 -31q-39 0 -78 10q-74 20 -353.5 280t-297.5 326z" />
<glyph unicode="=" horiz-adv-x="1155" d="M88 483q0 12 6 25q18 49 494 35l426 -13q59 -2 57 -47q0 -20 -27 -22q-37 -4 -38 -4q-82 -41 -613 -64q-100 -4 -131 -4q-176 6 -174 94zM133 870q2 12 6 23q16 51 492 37l430 -12q57 -4 53 -48q0 -20 -22 -24q-39 -2 -39 -6q-88 -41 -617 -62q-102 -6 -129 -2 q-178 6 -174 94z" />
<glyph unicode="&#x3e;" horiz-adv-x="1107" d="M109 45q-2 14 51 53q35 23 69 43q543 414 527 477q-18 70 -264 287q-121 106 -244 213q-6 29 45 35q37 2 74 -2q74 -18 353 -251.5t298 -297.5v-10q-47 -94 -379 -333t-426 -247q-18 -4 -59 8.5t-45 24.5z" />
<glyph unicode="?" horiz-adv-x="2015" d="M102 1483q0 139 74 205q47 41 158 102q451 272 1220 272h109q289 -6 381 -172q20 -39 20 -96q0 -104 -106 -217q-2 -2 -186 -168q-29 -35 -95 -100q-150 -129 -442 -383q-37 -164 -137 -477q-27 -20 -54 -21q-68 0 -100 113q-27 82 -26 164q0 104 43 241q39 119 79 236 q6 6 13 6q14 0 36.5 -20.5t37 -20.5t44 -13.5t43.5 -13.5q20 0 33 21q166 125 410 340q322 283 321 356q0 14 -6 31q-100 84 -391 84q-705 0 -1173 -244q-166 -86 -222 -199q201 -158 504 -133q-92 -31 -274 -96q-236 41 -310 160q-4 20 -4 43zM805 8q0 66 121 201 q66 -14 161 -94q0 -68 -67.5 -129.5t-134.5 -61.5q-41 0 -60.5 27.5t-19.5 56.5z" />
<glyph unicode="@" horiz-adv-x="2127" d="M127 664q-12 348 170 630q178 274 487 420q188 90 461 90q289 0 506 -164q240 -178 248 -458q12 -346 -205 -559q-66 -61 -192 -134q-88 -49 -142 -49q-61 0 -104 70q-31 59 -31 125q0 27 2 79t2 77.5t26.5 109.5t47.5 84q10 0 44 6t46 6q16 0 14 -14q-82 -301 -82 -387 q0 -18 28 -35.5t50 -17.5q25 0 70 22q90 49 143 101q201 193 189 489q-6 231 -176 373q-156 133 -388 143q-254 16 -409 -57q-297 -145 -461 -385q-176 -258 -164 -590q8 -285 199.5 -462t484.5 -177q555 0 881 502q18 55 74 55q20 0 24 -27q0 -12 -8 -32 q-98 -256 -393 -424q-274 -156 -565 -156q-352 0 -603 201q-262 209 -274 545zM561 582q0 33 23 114q53 188 194 357q147 180 326 241q141 53 215 54q23 0 88 -27q33 -8 63.5 -18.5t51.5 -47.5q12 -4 12 -10t8 -31.5t6 -35.5q-14 -45 -18 -91q-2 -53 -27 -131 q-10 -39 -49 -38q-35 0 -82 28q-92 -135 -180 -274q-119 -150 -258 -197q-115 -119 -203 -119q-76 0 -127 78q-43 64 -43 148zM690 541l74 -49q166 80 317 247q33 37 260 320l-75 47q-186 -39 -361.5 -211t-214.5 -354z" />
<glyph unicode="A" horiz-adv-x="2310" d="M-260 -475q231 330 536 817q45 66 132 193q0 2 2 8l-13 12l-26 -4q-38 5 -107 5q-23 0 -49 -1q-102 20 -149 59q0 4 -5 17v18q0 14 11 23q174 20 430 20q53 43 162 211q141 217 153 232q27 37 195 284q68 94 196 285q-16 41 -49 127q127 45 201 45t97.5 -29.5t35.5 -50.5 q14 -39 41 -113q70 -182 223 -501q172 -346 234 -500q33 -18 20 -47q25 -43 135 -273q80 -166 154 -260q47 -8 47 -43q0 -72 -147 -71q6 0 -175 20q-74 113 -163 320q-117 254 -154 323q-10 18 -28.5 14.5t-28.5 4.5l37 12q-147 309 -437 934q-313 -418 -600 -907 q14 -12 86 -13q20 0 66.5 7.5t68.5 7.5q12 0 35 -4.5t33 -4.5q12 0 35.5 4.5t36.5 4.5q18 0 52 -7.5t50 -7.5q10 0 28.5 3t28.5 3q16 0 52.5 -3t54.5 -3q23 0 63 2h66q49 0 86 -14h63q45 -2 64 -2q0 -6 -37 -18l10 -13l-47 -14q-172 8 -260 8q-135 0 -180 -8q-27 -8 -82 -19 q-74 -2 -225 -16q-80 0 -238 -24q-51 -63 -104 -170q-6 -14 -62 -93q-66 -86 -129 -170q-84 -113 -116 -180q-10 -27 -73 -120t-124 -187q-82 -119 -139 -172q-8 -2 -17 -2q-37 0 -57 35v6z" />
<glyph unicode="B" horiz-adv-x="2084" d="M8 1507q0 53 27 82l262 82q27 41 27 94q0 21 -5 43q43 16 91 17q74 0 155 -74q39 4 146 12q88 8 145 9q96 0 184 -35q119 -43 119 -127q0 -59 -65 -127q-59 -49 -115 -103q-45 -12 -88 -73q350 53 383 53q66 0 133 -14q176 -37 250 -64q131 -47 219 -141 q135 -141 135 -318q0 -215 -274 -600q-195 -272 -443 -526l-194 -199q0 -12 7 -33.5t7 -33.5q0 -29 -29 -29q-12 0 -31.5 5t-27.5 9q-39 29 -68 88q-45 82 -55 99v20q311 248 574 592q213 281 239 322q139 215 139 374q0 150 -159 240q-133 70 -297 70q-381 0 -715 -189 q-45 0 -106 39q-59 -37 -64 -63q-16 -57 -16 -541q0 -193 12 -344q8 -115 8 -123q0 -41 -8 -72q-39 -20 -76 -20q-47 0 -198 90q-6 41 -7 446q0 166 7 299q6 203 12 404q12 233 45 399q-12 2 -23 2q-14 0 -37.5 -7t-37.5 -7l-181 -74q-6 20 -6 47zM535 1167q16 4 131 88 q16 10 43 27q156 111 303 291q47 57 45 90q-59 14 -127 14q-63 0 -180 -16q-139 -18 -172 -41q-16 -152 -43 -453z" />
<glyph unicode="C" horiz-adv-x="1937" d="M88 369q0 360 174 710q254 508 629 752q20 12 117 72q23 20 73 43q0 4 11 0q20 10 49 43q6 -4 12 -4q2 0 10 6t16.5 13t38 14t42.5 26q250 100 337 100q51 0 99 -14l297 -84q104 -29 110 -90q2 -10 2 -14q0 -31 -55 -31q-6 0 -20 4h-25q-6 27 -35 67h-28q-8 0 -17 1 q-410 0 -846 -295q-367 -246 -610 -723q-186 -369 -186 -658q0 -254 118 -442q139 -219 377 -219q209 0 416 100q121 59 367 229q184 131 315 248q8 4 28.5 20.5t30.5 16.5h9q12 -12 12 -24q0 -8 -19.5 -25.5t-21.5 -30.5q-360 -348 -473 -426q-283 -199 -592 -198 q-334 0 -549 241q-213 230 -213 572z" />
<glyph unicode="D" horiz-adv-x="2140" d="M59 1823q12 14 43 35q100 59 328 98q201 37 342 37q416 0 731 -178q348 -199 479 -568q68 -195 68 -383q0 -88 -33 -248l2 -12q0 -74 -61 -209q-256 -584 -871 -583q-256 0 -477 100q-39 -25 -88 -25q-33 0 -88 15q-66 18 -82 31.5t-20 50t-8.5 50t-7.5 36t-3 32.5 q0 20 6 37q0 33 0 17q0 20 15 12q-10 295 -10 602q0 369 16 619q10 242 10 247v45q-14 23 -14 54q0 49 51 59q84 14 88 14q90 0 141 -41q29 -6 29 -38q0 -14 -8 -31q-53 -371 -53 -842q0 -393 32 -823q106 -92 261 -92q203 0 397 71q215 80 340 217q258 295 258 705 q0 449 -326 733q-317 268 -774 268q-223 0 -457 -47q-86 -30 -256 -65z" />
<glyph unicode="E" horiz-adv-x="1570" d="M41 98q0 16 12 25q27 -4 88 -4q25 0 77 2t79 2q-35 586 -35 1143q0 68 4 196v195q0 14 -26 20q-18 4 -54 0q-51 -2 -41 -2q-43 0 -57 29l-6 41q0 25 18 39q129 -2 1018 -2h164q39 0 119 -4q18 -29 18 -49t-12 -35l-842 -31l-10 -16v-238l10 -10q45 -4 99 -4q55 0 165.5 3 t167.5 3q74 0 133 -2q14 -16 15 -45q0 -51 -31 -56q6 0 -67 0q-23 0 -35 -10l-33 4q-133 -12 -401 -18q-14 4 -35 -21q-2 -2 -2 -233q0 -471 30 -897q31 -29 476 -29q-2 0 -2.5 0.5t458.5 5.5q16 12 31 13q12 0 27 -7q12 -31 12 -59q0 -82 -27 -82q-6 0 -18 2q-4 18 -25 53 q-123 -12 -395 -12q-82 0 -250 3t-254 3q-16 0 -16 -13t-4 -28q-18 -27 -60 -28q-63 -6 -67 -11q-41 10 -88 21.5t-72 42.5q-47 2 -156 2q-33 0 -53 8q-47 41 -47 90z" />
<glyph unicode="F" horiz-adv-x="1558" d="M33 655q0 6 2 15q141 39 219 73q-4 86 -4 187q0 102 6 307t6 309l-8 10q-59 -20 -141 -20q-68 0 -66 115v20q74 10 223 27q6 31 16.5 54.5t123.5 23.5q92 0 174 -27q100 0 334 14q209 12 329 13q182 0 314 -25q8 0 8 -6q0 -31 -66 -74h-20q-44 1 -88 1q-372 0 -791 -77 q-23 -23 -39 -159q-14 -102 -16 -295q-6 -207 -14 -297l20 -15q195 35 586 101q193 23 239 22q41 0 88 -6q-27 -35 -59 -67q-162 -43 -426 -97q-340 -72 -428 -92q-14 -6 -19.5 -17t-5.5 -34q4 -29 5 -31q0 -78 -9.5 -232.5t-9.5 -230.5q0 -125 19 -225q-6 -27 -42 -37 t-69 -18q-63 6 -170 63q0 74 2 222v221q0 121 -2 221q-14 10 -33 10q-18 0 -50 -10t-50 -10q-47 0 -68 20q-20 67 -20 53z" />
<glyph unicode="G" horiz-adv-x="2801" d="M80 651q0 362 170 695q184 350 487 512q449 242 920 241q160 0 299 -26q70 -10 158 -56q119 -55 116 -108q-39 -6 -78 -6q-47 0 -137 8t-137 8q-516 0 -922 -199q-332 -164 -516 -493q-178 -315 -178 -699q0 -455 261 -706.5t718 -251.5q315 0 590 135q195 94 504 342 q6 59 6 133q0 623 -23 881q-31 12 -129 21.5t-120.5 26.5t-43.5 71q25 18 175 18q334 0 530 -51q16 -14 16 -39q0 -20 -12 -41q-25 -2 -80 -29q-6 -31 -12 -108q-6 -131 -6 -547q0 -221 10 -403q0 -25 6 -101q2 -61 2 -98q0 -16 -47 -35h-12h-4q-68 0 -226 68q0 57 -20 172 q-6 2 -12 2q-8 0 -52.5 -35t-48.5 -47q-14 -33 -59 -74q-35 -29 -70 -61q-141 -145 -334 -234q-201 -88 -395 -88q-100 0 -203 21q-496 109 -708 307q-29 27 -109 121q-31 31 -86 100q-188 268 -188 653z" />
<glyph unicode="H" horiz-adv-x="1980" d="M-72 764q4 29 27 76h264l23 20q20 246 55 742q51 23 106 22q84 0 144.5 -47t60.5 -127q0 -37 -16 -102q-16 -74 -21 -101q-2 -35 -22 -170q-15 -87 -15 -148q0 -14 1 -26v-37l22 -14q115 6 256 6h199q129 -2 194 -2q221 0 377 21q-6 156 -6 335q0 385 31 906 q88 0 135 -13q80 -61 80 -88q0 -76 -39 -751q-2 -160 -17 -480q-10 -82 -30 -249l-66 -535q-10 -10 -16 -74q-4 -49 -41 -63q-12 47 -12 330q0 463 -19 622l-16 6q-641 -84 -1030 -84q-18 -16 -23 -102l-45 -584q-6 -94 -102 -94q-86 0 -152 88q0 92 9 274.5t9 274.5 q0 61 -4 121q-5 5 -89 4q-64 0 -173 -2q-16 0 -39 45z" />
<glyph unicode="I" horiz-adv-x="909" d="M25 1688l20 32q63 0 202.5 2t207.5 2q37 0 108 -2h109q201 0 194 2q33 -10 99 -26q0 -4 -9 -35q-16 0 -194 -16q-45 -10 -133 -19q2 -12 11 -36.5t9 -41.5l-26 -174q-47 -305 -48 -745q0 -113 3 -295q4 -223 4 -291l10 -20q78 -4 227 -27q-16 -18 -67 -18 q-29 -14 -95.5 -17.5t-101.5 -17.5q-20 -10 -53 -11q-18 0 -48 8.5t-40 10.5q10 -2 -54 -2q-45 0 -130 2t-128 2q-20 12 -38.5 22.5t-28.5 40.5q4 2 10 2q41 0 125 6.5t125 6.5q14 12 14 39q0 14 -4 40.5t-4 41.5q0 20 14 28q0 100 -3 300t-3 296q0 182 35 842l-2 8h-29h-30 q-135 1 -258 60z" />
<glyph unicode="J" horiz-adv-x="1001" d="M-537 -739q303 49 414 147q276 242 373 651q53 215 90 760q20 352 20 649q0 156 -6 308q-51 0 -151.5 -6.5t-149.5 -6.5q-186 0 -186 54q0 33 57 32q27 0 78 -9t78 -9l274 4q8 8 8 16q0 10 -6 23.5t-6 17.5q0 12 12 19h25h16q132 0 232 -66q195 -10 373 -10 q27 -18 26 -57q0 -14 -2 -27l-18 -2q-23 33 -25 34t-36.5 1t-100.5 3t-94 3q-35 0 -66 -2q-16 -145 -37 -723q-18 -520 -65 -805q-72 -428 -224.5 -633t-418.5 -317q-94 -39 -234 -55q-121 -12 -237 -27z" />
<glyph unicode="K" horiz-adv-x="1945" d="M160 946q0 41 47 146q29 -39 102 -60q6 68 15 207q12 127 30 375q49 8 80 8q57 0 96 -66q0 -74 -24.5 -221t-24.5 -221q0 -41 6 -76l955 396q141 76 434 202q121 -76 121 -186q0 -41 -39 -70q-2 -4 -74 -41q-213 -121 -584 -268q-440 -180 -587 -252q16 -20 1016 -616 q-27 -41 -72 -123h-17q-315 170 -935 530q-33 25 -95 62q-88 47 -127 47q-16 0 -32 -6q-14 -37 -15.5 -90.5t-1.5 -100.5q-39 -477 -39 -557q0 -25 2 -59v-56v-65q10 -35 45 -45q8 -35 -65 -35q-35 0 -84 8l-10 21q4 319 12 962q-18 20 -31.5 71.5t-27.5 72.5 q-76 30 -76 106z" />
<glyph unicode="L" horiz-adv-x="1591" d="M-72 -168q6 47 14.5 95t49.5 65q123 29 282 80l9 10q-27 184 -27 395q0 616 287 1559q47 14 80 14q53 0 53 -35q0 -25 -6 -51q-47 -141 -129 -418q-174 -614 -174 -1089q0 -301 28 -357q274 45 545 88q322 47 553 60q76 -139 76 -242q0 -89 -44 -89q-5 0 -9 1 q-16 37 -74 37q-14 0 -45 -4t-45 -4h-25h-17q-235 0 -676 -107q-458 -111 -667 -110q-39 0 -39 77v25z" />
<glyph unicode="M" horiz-adv-x="2783" d="M102 -174q10 68 91 147q20 414 40 826q29 473 82 821q-96 174 -213 324q10 23 140 22q106 0 172 -29q20 0 58 -4t51.5 -37.5t25.5 -66.5q27 -45 80 -125q180 -291 356 -584q213 -338 377 -571h12q139 176 447.5 500.5t443.5 498.5q27 35 49 35q25 0 72 -18.5t74 -18.5 q127 -45 127 -192q0 -51 -16.5 -146.5t-16.5 -146.5q0 -41 4 -123t4 -127q0 -55 -8 -418q-4 -116 -4 -210q0 -118 6 -203q-8 -12 -35 -25q-74 12 -137 78q-51 61 -100 123l-5 620q0 428 9 625q-2 6 -11 6q-20 0 -308 -322.5t-329 -388.5q-63 -88 -186 -266l-4 -8 q0 -27 40 -77t40 -71q0 -47 -96 -47q-74 0 -166 39q-76 35 -154 74q-209 336 -639 1006q-41 -74 -59 -205q-12 -106 -21 -215q-8 -35 -20 -107q-8 -80 -27 -237q-51 -456 -51 -644v-14v-69q16 -20 57 -23q43 -51 43 -47q0 -25 -30 -47q-16 -4 -33 -4q-105 0 -232 92z" />
<glyph unicode="N" horiz-adv-x="2037" d="M295 518q0 700 55 1366q18 14 60 21q61 10 65 10q41 10 70 10q63 0 117.5 -63.5t54.5 -124.5q0 -23 -7.5 -70t-9.5 -65.5t-10 -55.5t-8 -53q0 -39 43 -74q68 -59 299 -307l26 -22t68 -58t96 -85t109.5 -101.5t109 -110.5t95 -110t67 -100.5t25.5 -82.5v461q0 268 31 748 q39 10 71 10q96 0 142 -68q-8 -174 -62 -641q-42 -357 -41 -585v-58v-43q55 -70 56 -94q0 -31 -46.5 -67.5t-46.5 -77.5l-30 -74q-16 23 -27.5 81t-19.5 72q-37 39 -99 113q-215 258 -430 520q-260 313 -454 502q-12 -55 -25 -149q-51 -520 -51 -936q0 -244 16 -459 q-23 -63 -153 -64q-33 0 -67 39t-62 45l-13 29q-14 401 -14 772z" />
<glyph unicode="O" horiz-adv-x="2287" d="M129 791q0 307 246 690q2 27 69 80q74 63 152 129q88 72 168 98q147 -6 166 -137q369 0 579 -43q315 -72 514 -262q186 -180 187 -490q0 -152 -51 -278q-82 -211 -463 -476q-256 -176 -602 -176q-311 0 -537 150q-188 125 -303 305q-125 197 -125 410zM389 655 q0 -301 227 -487q121 -100 318 -100q139 0 338 77q55 20 164 74q141 84 280 264q129 172 193 336q29 86 28 193q0 143 -92 270q-23 33 -76 100q-193 201 -639 201q-66 0 -239 -6q-215 -182 -348 -410q-154 -258 -154 -512z" />
<glyph unicode="P" horiz-adv-x="1320" d="M-106 1688q20 80 81 90q238 51 486 51q526 0 768 -281q100 -115 100 -227q0 -39 -8 -61q-53 -160 -401 -336q-291 -145 -416 -160l-17 -27q-6 -102 -6 -837q0 -45 -92 -45q-35 0 -153 57l-13 12q-8 123 -8 344q0 662 39 1180q6 59 6 115q0 51 -6 153l-12 8h-33 q-61 0 -160 -14q-114 -20 -155 -22zM498 829q289 90 573 301q147 109 148 246q0 27 -19.5 85.5t-38.5 72.5q-244 195 -536 195q-43 0 -88 -5q29 -82 28 -77l-41 -433q-29 -311 -26 -350v-35z" />
<glyph unicode="Q" horiz-adv-x="2201" d="M129 608q0 100 16 178q49 287 357 644q-18 98 -19 186q0 119 39 229q14 47 57.5 92t82.5 86q242 90 417 91q219 0 410 -121q225 -137 387 -383q14 -20 39 -62q104 -256 104 -530q0 -442 -209 -832l21 -18q178 -61 534 -188q2 -33 -92 -56q-74 -18 -121 -18 q-156 0 -483 74q-270 -319 -661 -320q-289 0 -539 193q-260 195 -313 475q-27 133 -27 280zM344 489q0 -176 53 -321q66 -176 220.5 -300t334.5 -124q260 0 535 283q-113 45 -225 86q-129 49 -211 102q-141 94 -142 301q0 35 21 33q47 -59 131 -105q190 -94 559 -208l16 6 q221 455 222 835q0 584 -410 854q-203 133 -383 133t-315 -88q-147 -94 -189 -262q-4 -20 -12 -65q-12 -61 -12 -76q0 -39 12 -84q86 53 143 104q12 27 58 27q115 0 153 -72v-88q-137 -53 -301 -289q-133 -188 -205 -374q-53 -136 -53 -308z" />
<glyph unicode="R" horiz-adv-x="1816" d="M-47 1608q0 8 2 16q84 72 213 105q-2 -33 27 -33h-4q0 3 223 28q16 18 22 84q8 53 33 70q100 -2 141 -14q66 -20 107 -88q14 -6 282 -7q401 0 570 -73q66 -27 134.5 -105t68.5 -143q0 -186 -238 -324q-27 -16 -207 -106q-248 -127 -498 -242q154 -152 445 -387 q328 -268 455 -381q-4 -16 -68 -16q-100 0 -275 84q-57 27 -227 160q-266 205 -274 213q-174 143 -228 247q-102 -18 -133 -51q0 -96 -16 -309q-16 -197 -16 -307q0 -70 6 -131q6 -4 4 -11v-14q-39 -33 -88 -33q-43 0 -107 27q-74 35 -74 67q0 541 82 1201q29 154 82 460 q-10 8 -26 9q-14 0 -42 -5.5t-42 -5.5q-31 0 -141.5 -28.5t-139.5 -28.5q-18 0 -41 31q-12 55 -12 41zM549 852q54 16 77 16q7 0 11 -2l25 11q10 76 40 75q14 -33 48 -92q358 172 571 291q377 209 377 352q0 37 -35 64q-156 109 -518 108q-166 0 -453 -28q-43 -199 -88 -396 q-43 -227 -55 -399z" />
<glyph unicode="S" horiz-adv-x="1036" d="M182 -371q506 279 506 707q0 229 -125 516q-45 100 -248 477q-119 217 -118 406q0 164 90 288q100 141 315 195q55 14 62 14q33 0 86 -26l81 -41q14 -2 46 -15q41 -18 88 -68t47 -89q0 -55 -56 -56q-39 0 -79 27q-37 61 -64 61q-4 0 -20 -2q-403 -119 -404 -421 q0 -125 80 -275q244 -457 274 -522q135 -309 136 -565q0 -248 -207 -420q-111 -90 -430 -238q-29 10 -60 47z" />
<glyph unicode="T" horiz-adv-x="1503" d="M25 1878q14 10 282 10q248 0 309 -4q18 25 63.5 29t59.5 12q133 0 193 -57h498q45 -39 45 -84q0 -14 -7 -29q-8 -4 -18 -4q-8 0 -27.5 12.5t-33.5 12.5q-410 0 -443 -21q-53 -520 -53 -1005q0 -446 47 -969q-53 -43 -117 -43q-53 0 -194 59q-12 20 -19.5 68.5t-25.5 68.5 q0 16 -4.5 45t-4.5 46q0 23 9 47v16q4 12 20 18q0 94 -6 381q-2 236 -2 379q0 274 14 520q17 339 20 339l1 -3l-2 39q-74 20 -426 21q-102 0 -148 6q-30 31 -30 90z" />
<glyph unicode="U" horiz-adv-x="2013" d="M180 543q0 602 103 1065q12 61 39 88q102 12 127 12q141 0 141 -100q0 -14 -6 -31q-135 -518 -135 -1061q0 -150 6 -197q8 -80 32 -172q35 -135 74 -135q4 0 17 13q152 168 383 571q33 55 99 171t232 478q47 88 117 264q31 98 39 154q59 20 119 20q74 0 121 -34l20 -41 v-37q0 -357 76 -828q74 -428 151 -856l-10 -37q-49 -43 -76 -57q-47 -29 -88 -35q-53 82 -80 222q-20 115 -41 233q-145 600 -186 1200q-27 -27 -80 -172l-86 -190q-63 -160 -209 -473q-35 -59 -108 -181q-18 -37 -53 -110q-127 -233 -246 -320q-43 -33 -115 -33 q-115 0 -203 68q-174 140 -174 541z" />
<glyph unicode="V" horiz-adv-x="1705" d="M-33 1522q8 20 37 30.5t55 20.5q74 37 138 37q78 0 131 -37q39 -96 114 -285q72 -170 222 -622q39 -96 106 -295q23 -55 61 -164h19q311 522 311 524q184 299 338 510q57 84 164 252q45 0 95 -26.5t50 -63.5q0 -14 -20 -23q-18 14 -59 29q-328 -465 -390 -559 q-215 -322 -348 -588l-88 -174l-4 -35q25 -72 80 -203q-29 -63 -107 -63q-76 0 -180 27q-31 6 -53 57l-29 82q-92 193 -303 790q-178 503 -340 779z" />
<glyph unicode="W" horiz-adv-x="2611" d="M33 2114q0 39 41 38q6 0 53 -12q2 0 235 -35q27 14 89 15q111 0 188 -41q12 -12 39 -26.5t93.5 -24t94.5 -23.5v-74q-20 4 -88 19q-53 12 -88 12q-12 0 -26 -4q-27 -41 -80 -209q-8 -35 -66 -315q-104 -520 -104 -897q0 -86 4 -166q57 98 225 485q39 74 109 225 q12 37 41.5 111t63.5 158t42 153q18 -2 35 -2q18 0 54 3t52 3q59 0 95 -30.5t46.5 -83t22.5 -99.5q55 -217 115 -434q70 -250 158 -418q117 -223 331 -268q242 55 396 340q131 248 131 520t-199 660h49q8 0 21.5 -11.5t93.5 -129t92 -140.5q88 -178 88 -440 q0 -336 -135 -598q-172 -322 -477 -322q-281 0 -541 262q-160 156 -248 416q-68 236 -133 473h-16q-78 -164 -228 -491q-33 -76 -100 -232q-47 -92 -98 -184q-49 -104 -60 -197q-8 -109 -8 -147q0 -35 6 -68q-68 -57 -100 -57q-72 0 -129 90q-51 217 -51 500q0 459 157 1399 q10 59 25 182q-88 6 -262 39q-49 15 -49 76z" />
<glyph unicode="X" horiz-adv-x="1644" d="M27 94q197 227 587 682v21q-172 207 -239 307q-119 182 -156 352q14 10 47 10q29 0 37 -6q51 -31 90 -119q29 -68 64 -137t108 -153q66 -74 127 -148h21q125 156 340 375q322 324 354 358q113 -23 113 -127q0 -55 -47 -123q-43 -57 -84 -108q-12 -23 -35 -59 q-59 -63 -162 -179q-188 -205 -315 -368l2 -27q227 -211 333 -297q233 -186 371 -209q4 -4 4 -10q0 -41 -84 -41q-190 0 -704 473q-358 -385 -559 -696q-31 -18 -64 -19q-43 0 -88 31q-61 78 -61 217z" />
<glyph unicode="Y" horiz-adv-x="1536" d="M106 1649q0 113 29 219q61 -4 92 -10q53 -14 68 -54q-6 -123 -6 -180q0 -205 87 -372t134 -226q92 -109 215 -127q106 152 328 569q199 369 354 555q68 0 121 -30q33 -14 41 -44t14 -59q-14 -94 -94 -219q-68 -98 -135 -203q-98 -166 -273 -503q4 -8 17 -9q10 0 37 15 q10 2 94 33q-55 -72 -197 -132q-72 -109 -268 -495q-223 -436 -340 -795q-10 -10 -23.5 -31.5t-52.5 -21.5q-66 0 -105.5 45t-74.5 92q18 41 55 127q219 569 461 1012q-8 31 -55 45q-37 14 -72 27q-207 109 -329 320.5t-122 451.5z" />
<glyph unicode="Z" horiz-adv-x="1933" d="M82 1583q2 47 2 71.5t-2 26.5q10 29 45 91q80 18 221 18q670 0 1487 -256q16 -10 35 -14q6 -6 6 -60q0 -145 -80 -241q-14 -6 -29 -7q-23 0 -69.5 21.5t-69.5 26.5q-41 35 -92 34q-37 0 -248 -96q-35 -16 -149 -84q-436 -262 -731 -633q-94 -115 -95 -258q0 -51 41 -108 q334 -39 781 -39q225 0 434 12v-27v-11q0 -87 -60 -152q-80 -10 -182 -11q-154 0 -328 19q-113 8 -276 41l-279 53q-84 14 -114 33q-47 27 -68 94q-14 49 -14 106q0 135 55 259q90 207 348 442q340 307 553 422l4 18q-41 18 -237 60q-434 90 -631 90q-137 0 -227 -25 q-31 16 -31 84z" />
<glyph unicode="[" horiz-adv-x="974" d="M281 -219q14 358 86 1075q74 741 135 1190q8 45 248 63q143 8 247 -10q23 -2 33 -49q8 -45 -12 -45q-92 -2 -248 -49q-51 -18 -88 -53q-27 -31 -31 -45q-47 -160 -108 -719q-72 -623 -72 -1010q0 -127 10 -215q8 -106 37 -147q184 -41 293 -41q27 6 27 -60q0 -29 -19 -35 q-55 -12 -237 -8q-63 0 -222 2q-74 82 -73 94q0 10 5 15.5t5 9.5q0 6 -10 17.5t-6 19.5z" />
<glyph unicode="\" horiz-adv-x="1302" d="M197 2025q-2 37 26 72q43 47 70 55q41 10 82 15q106 -131 154.5 -302t160.5 -423q147 -330 180 -416q106 -268 211 -539q119 -315 181 -555q-49 -72 -84 -71q-16 0 -32 13t-79 155q-61 178 -184 528q-246 688 -447 1067q-74 59 -129 195q-67 157 -110 206z" />
<glyph unicode="]" horiz-adv-x="942" d="M29 -340q-4 47 12 47q94 6 248 60q51 18 88 57q31 29 31 43q47 160 110 725q70 627 70 1016q0 123 -6 211q-12 106 -41 147q-184 33 -291 31q-27 -6 -27 59q0 29 17 35q55 14 237 18q45 0 88 2q74 2 133 3q74 -78 74 -95q0 -4 -5 -10t-5 -12t10 -16.5t6 -18.5 q-14 -360 -86 -1079q-70 -748 -135 -1198q-6 -45 -248 -72q-141 -14 -248 0q-22 4 -32 47z" />
<glyph unicode="^" horiz-adv-x="1290" d="M82 1165q18 90 290.5 396.5t370.5 343.5q59 -6 268.5 -316.5t217.5 -390.5q4 -37 -4 -74q-10 -51 -39 -39q-6 2 -8 2q-78 127 -220 316q-188 252 -233 239q-90 -29 -510 -475q-39 -43 -102 -110q-14 -10 -25.5 39t-5.5 69z" />
<glyph unicode="_" horiz-adv-x="1474" d="M-2 -301h1479v-76h-1479v76z" />
<glyph unicode="`" horiz-adv-x="1167" d="M510 1929q27 74 168 70q127 -106 455 -424l8 -35h-74q-33 0 -190 84q-285 147 -367 305z" />
<glyph unicode="a" d="M80 195q0 39 26 133q59 217 228.5 417.5t374.5 278.5q164 57 247 57q29 0 103 -28q35 -12 71.5 -25.5t61.5 -48.5q12 -12 12 -21q0 -6 -16.5 -20t-20.5 -27q-14 -41 -14 -370q0 -184 35 -338q12 -29 31 -90v-37q0 -41 -27 -49q-72 74 -125 280q-43 180 -43 309l-18 13 q-102 -162 -203 -322q-131 -180 -289 -235q-137 -137 -240 -138q-88 0 -145 91q-49 76 -49 170zM229 147l86 -53q188 88 369 287q35 37 299 369l-90 53q-215 -45 -417 -244t-247 -412z" />
<glyph unicode="b" horiz-adv-x="1288" d="M115 -156q0 164 30.5 653.5t110.5 1132.5q39 305 39 307q29 209 55 299q10 31 45 88q182 -12 189 -106q-68 -201 -113 -483q-10 -68 -63 -490q-18 -137 -19 -213q0 -33 6 -53l21 -8q186 37 336 37q127 0 247 -35q147 -43 209 -127q27 -37 27 -137q0 -221 -379 -568 q-133 -117 -219 -168q-150 -86 -318 -114l-18 -80q-12 -53 -65 -53t-97 55q-24 30 -24 63zM315 94q0 -59 4 -112l23 -9l-6 -32q133 35 340 198q195 156 280 283q109 160 109 297q0 121 -80 166q-59 33 -188 33q-80 0 -163 -16.5t-160 -33t-87 -71.5q-25 -88 -45 -299 q-27 -275 -27 -404z" />
<glyph unicode="c" horiz-adv-x="1376" d="M82 309q0 225 144.5 436t355.5 308q88 41 315 41q268 0 338 -138v-22q0 -51 -68 -51q-35 0 -133 51q-8 18 -28 39h-11q-213 0 -403 -162q-174 -147 -264 -362q-39 -94 -39 -181q0 -80 56 -161.5t132 -81.5q225 0 590 202q154 86 233 144q2 -23 -26.5 -55.5t-28.5 -53.5 q-328 -354 -688 -354q-150 0 -238 67q-125 98 -159 144q-78 88 -78 190z" />
<glyph unicode="d" horiz-adv-x="1632" d="M98 223q0 53 17 111q78 244 267 459t423 313q129 53 192 53q133 0 248 -72q6 74 27 220q90 678 237 1003q45 102 72 103q23 0 81 -50.5t58 -74.5q0 -14 -43 -158q-43 -174 -47 -178q-158 -680 -258 -1612q-37 -334 -37 -348q0 -16 10.5 -27.5t14.5 -23.5q14 -96 14 -195 q0 -47 -27.5 -88t-72.5 -41q-39 0 -81 30.5t-81 59.5q20 416 80 944q-18 -27 -152 -149q-311 -293 -317 -299q-236 -211 -328 -252q-25 -10 -71 -10q-100 0 -168 94q-58 84 -58 188zM248 139q0 -45 71 -53q332 223 828 592q14 12 53 35q8 90 29 266h-10q-487 0 -832 -502 q-43 -55 -86 -164q-53 -121 -53 -174z" />
<glyph unicode="e" horiz-adv-x="1228" d="M154 440q0 276 217 527q217 242 493 299q14 2 76 2q45 0 86 -2q152 -131 152 -262q0 -31 -11 -60q-80 -299 -583 -452q-168 -51 -250 -52q-37 0 -72 9q0 -367 283 -367q74 0 172 24q0 -27 -29 -45q-49 -27 -51 -28q-66 -33 -135 -33q-166 0 -262 141q-86 125 -86 299z M328 678q209 12 434 125q262 131 297 309q-14 23 -55 33q-57 8 -70 14q-258 -12 -473 -266q-72 -82 -84 -100q-43 -64 -49 -115z" />
<glyph unicode="f" horiz-adv-x="919" d="M-29 1135q0 39 9 59l18 6h383q33 0 47 35q0 4 61 260q12 53 66 209q14 53 47 164q94 297 250 512q27 35 59 35q-4 0 -4 -1t90 -8q176 -12 256 -108q94 -113 95 -195q0 -66 -45 -98h-123q-6 125 -9 152q-16 84 -59 135q-72 -27 -121 -109q-35 -74 -73 -151 q-61 -127 -146 -392q-84 -274 -100 -407l18 -19l477 -2q18 -25 15 -41q-43 -4 -117 -45q-39 -14 -100 -20q-82 -2 -105 -8l-55 -19q-47 -2 -92 -6q-68 -6 -76 -33q-2 -8 -29 -174q-53 -336 -104 -837q-41 -418 -82 -838q-6 -8 -14 -63q-10 -41 -33 -58q-6 -104 -86 -229 q-14 -6 -41 -34t-51 -28l-9 2q-12 33 -12 95q0 168 25 422l45 421q14 193 135 1321l-4 7q-82 6 -264 18q-15 -2 -34 -2q-29 0 -67 4q-41 15 -41 68z" />
<glyph unicode="g" horiz-adv-x="1482" d="M-449 -1120q0 381 463 784q59 49 179 143l221 138q309 188 506 276h30q-20 -33 -60 -57.5t-52 -50.5q-55 -47 -174 -133q-92 -55 -269 -173q-578 -410 -710 -837q-25 -74 -25 -174q0 -205 211 -205q270 0 500 164q547 393 723 1218q37 168 36 355q0 281 -53 518 q-86 -68 -180 -209q-104 -154 -158 -203q-29 -25 -82 -72q-82 -80 -161 -159q-102 -94 -195 -115q-80 27 -139.5 104.5t-59.5 161.5q0 176 222 465q213 279 567 461h6q150 0 150 -102q0 -12 -3 -23q-635 -416 -796 -848q53 -41 114 -41q303 205 695 654q0 10 -4 18l-6 74 q45 -4 93 -35t68 -68q4 -6 11 -43l10 -43q74 -328 74 -630q0 -322 -111 -621q-174 -455 -420 -713q-96 -100 -154 -145q-16 -12 -100 -60q-297 -168 -530 -167q-109 0 -201 30q-111 35 -201 205q-27 45 -26 51q-9 29 -9 107z" />
<glyph unicode="h" horiz-adv-x="1617" d="M2 1030q0 27 27 27q119 74 284 229q14 41 17 103q4 80 10 100q49 287 94 420q76 236 211 362q94 86 238 129q27 8 69 8q98 0 170 -49t72 -145q0 -135 -88 -289q-186 -311 -688 -739q-16 -129 -17 -303v-140q2 -92 2 -141l13 -10q240 240 454 239q344 0 639 -565 q14 -37 15 -47q0 -12 -2 -33q-29 -6 -54 -6q-59 0 -92 76q-190 432 -379 432h-26q-188 -78 -334 -285q-135 -195 -170 -403q-27 -39 -96 -39q-63 0 -111 64q-18 23 -65 116q53 266 79 723q0 39 9 94q4 41 4 99q0 4 -13 4q-18 0 -97 -58.5t-118 -58.5q-57 0 -57 86zM457 1425 h12q266 238 418 445q121 166 137 188q70 115 70 219q0 14 -2 29q-25 45 -84 45q-68 0 -121 -27q-41 -18 -137 -110q-279 -265 -293 -789z" />
<glyph unicode="i" horiz-adv-x="645" d="M197 289q0 221 73 561q27 2 58 2q100 0 141 -55v-84q0 4 -1 4q-4 0 -26 -109q-27 -131 -53 -260q-41 -168 -106 -233q-12 -6 -23 -6q-63 0 -63 180zM360 1253q0 55 21 109q20 10 41 10q35 0 77 -26.5t42 -57.5q0 -33 -19.5 -69.5t-38.5 -67.5q-20 -6 -43 -6q-18 0 -59 6 q-21 47 -21 102z" />
<glyph unicode="j" horiz-adv-x="804" d="M-1198 -1153q0 29 10 59q-6 41 -6 82q0 127 23 213q16 53 84 207l81 29q-2 -33 -32 -121q-2 -41 -15 -119q0 -6 -26 -129q-12 -61 -13 -133q0 -129 71 -220t192 -91q43 0 110 16q250 72 438 281q141 156 242 321q395 651 395 1671q0 354 -14 400q-12 35 -12 43 q0 16 12 39q113 -29 125 -35q74 -31 94.5 -83t20.5 -304v-84v-84q0 -471 -164 -1012q-16 -61 -58 -186q-25 -70 -92 -203q-18 -6 -65 -88q-352 -610 -828 -778q-33 -25 -120 -25q-158 0 -232 45q-221 148 -221 289zM467 2023q0 186 129 361q70 0 123 -80q18 -27 18 -72 q2 -68 2 -73q-51 -74 -108 -148q-68 -80 -139 -108q-25 48 -25 120z" />
<glyph unicode="k" horiz-adv-x="1335" d="M129 770q4 12 12 66q6 41 33 55q8 -4 26.5 -11.5t26.5 -7.5l13 5l49 49q39 301 73 522q47 301 87 428q74 233 213 375q31 33 100 84q29 18 94 18q129 0 197 -100q59 -86 59 -223q0 -131 -68 -293q-31 -76 -133 -271q-74 -145 -213 -311q-123 -137 -247 -278 q0 -18 -4.5 -52t-4.5 -53q0 -20 7 -33q18 0 36.5 -24.5t36.5 -24.5q8 0 187 88q197 104 204 107q90 41 166 67q100 -41 140 -88q16 -12 16 -45l-16 -26q-86 -53 -514 -279q12 -6 34 -22q16 -20 52 -52q82 -74 271 -197.5t273 -201.5q-10 -12 -63 -35q-207 53 -447 187 q-123 68 -409 256q-23 -193 -97 -572q-18 -18 -49 -18q-49 0 -123 114q33 195 66 435q27 195 27 202q0 12 -49.5 82t-61.5 78zM492 1147q526 510 526 924q0 217 -109 217q-86 0 -147 -76q-145 -180 -207 -510q-30 -145 -63 -555z" />
<glyph unicode="l" horiz-adv-x="677" d="M188 201q0 59 31 370q100 1122 295 1721q41 20 84 20q80 0 100 -74q-82 -549 -235 -1648q-2 -61 -21 -182q-8 -33 -26 -95q-18 -80 -35 -163q-20 -94 -53 -156q0 -14 8 -44t8 -48q0 -16 -37 -17q-45 0 -80 56q-39 113 -39 260z" />
<glyph unicode="m" horiz-adv-x="1927" d="M156 106q37 236 71 472q43 281 109 466q57 20 113 21q68 0 125 -33t57 -98q0 -29 -20.5 -83t-20.5 -85q0 -8 2 -16q98 80 264 96q104 -29 162 -117q35 -53 62.5 -157.5t52.5 -129.5q72 76 141 156q92 92 176 92q119 0 160 -94q25 -94 51.5 -188.5t26.5 -167.5 q-57 0 -86 16q-12 37 -35 106q-33 86 -92 256q-29 -27 -95 -69q-72 -92 -141 -182q-86 -106 -160 -164q-92 27 -133 252q-47 248 -108 303q-72 -6 -140 -80l-106 -123q-82 -94 -111 -274q-25 -147 -47 -299q-27 -10 -59 -11q-6 0 -86 4q-43 45 -133 131z" />
<glyph unicode="n" horiz-adv-x="1404" d="M147 227q6 129 33 390.5t33 390.5q23 12 55 12q133 0 172 -76q0 -66 -18.5 -187.5t-18.5 -185.5h19q233 258 403 258q182 0 334 -180q123 -147 176 -348q45 -41 45 -65q0 -47 -65 -48q-16 0 -35 7q-82 61 -133 206q-61 164 -101 213.5t-84 96.5t-106 47q-80 0 -174 -80 q-68 -59 -168 -174q-121 -133 -143 -185q-8 -23 -9 -124q0 -7 1 -14q0 -70 -39 -95q-14 -4 -27 -4q-47 0 -84 57q-58 76 -66 88z" />
<glyph unicode="o" horiz-adv-x="1200" d="M82 502q0 117 39 233q-35 70 -35 82q0 47 64 76q80 41 96 63q49 78 102 156q70 88 154 88q129 0 168 -70q-8 -45 -52 -104q20 -14 158 -47q123 -35 180 -68q147 -92 148 -321q0 -188 -193.5 -402.5t-380.5 -214.5q-197 0 -327 172q-121 156 -121 357zM322 381 q0 -154 73 -266q27 -6 54 -6q96 0 161 41q18 12 99 79q262 221 262 437q0 66 -33 127q-176 -35 -530 -88q-39 -39 -66 -154q-20 -96 -20 -170zM469 838q207 14 369 55q-51 59 -273 59q-29 0 -57 -47q-21 -34 -39 -67z" />
<glyph unicode="p" horiz-adv-x="1468" d="M-25 -1481q0 45 7 107q10 74 10 106q10 244 10 416l18 8q8 309 19 623q16 350 90 610q16 53 117 281q20 47 41 295q21 214 20 299v14h35h39q162 0 162 -100q0 -12 -4 -36t-4 -36q0 -20 6 -33q205 119 379 119q180 0 305 -98q135 -106 135 -281q0 -223 -275 -463 q119 37 365 86q2 -16 2 -25.5t-2 -12.5q-4 -5 -35 -15q-43 -20 -135 -59q-115 -47 -342 -142q-55 -27 -168 -69q-45 -14 -130 -46t-259 -94q-57 -276 -166 -872q-14 -88 -49 -281q-6 -45 -21 -106q-10 -27 -26 -82q-20 -86 -31 -148q-8 0 -23.5 -4t-19.5 -4q-10 0 -18 2 q-52 39 -52 41zM86 -518q0 -84 2 -172q31 119 47 297q18 147 33 295l-47 26q-35 -210 -35 -446zM129 2q18 4 53 23q31 164 45 362q-82 -127 -98 -385zM395 82h8q94 0 308 131q176 109 280 205q236 217 236 422q0 285 -303 284q-236 0 -414 -233q-14 -135 -58.5 -405.5 t-56.5 -403.5z" />
<glyph unicode="q" horiz-adv-x="1644" d="M121 383q0 53 18 109q74 270 272.5 506.5t452.5 349.5q147 66 207 65q115 0 225.5 -52t171.5 -140q4 -43 -38 -43q-571 0 -947 -553q-160 -236 -159 -396q0 -20 12 -20q8 0 19.5 3t15.5 7q291 199 606 436q94 70 285 211q45 31 77 113q27 68 50 68q27 0 92 -51.5 t65 -77.5q0 -12 -53 -162q-59 -168 -63 -185q-109 -377 -175 -786q-47 -307 -61 -428q-20 -170 -39 -434l10 -27q12 18 29 19q27 0 66 -48q-4 -14 4 -27.5t8 -25.5q0 -35 14 -105.5t14 -107.5q0 -125 -92 -125q-43 0 -96 35q-41 29 -82 59q16 477 29 658q18 324 47 579 q41 346 55 449q37 268 86 506q-33 -27 -92 -90q-88 -96 -342 -324q-276 -248 -352 -280q-25 -12 -78 -13q-76 0 -117 31q-63 41 -104 128t-41 169z" />
<glyph unicode="r" horiz-adv-x="968" d="M160 274q0 262 41 603q76 63 127 63q16 0 34 -6l19 -25q-25 -111 -25 -239q0 -33 4 -68q195 309 463 422h4q27 0 66 -25l-8 -43q-428 -322 -525 -841q-59 -76 -145 -76q-14 0 -29 2l-18 20q-8 100 -8 213z" />
<glyph unicode="s" horiz-adv-x="933" d="M49 776q0 115 164 238q137 104 311 104q121 0 226 -47q2 -4 79 -37q53 -23 54 -69v-13q-16 -20 -86 -20q-10 0 -31 -6q-483 -139 -483 -303q0 -18 6 -33q115 -102 229 -203q133 -127 133 -258q0 -76 -37 -147q-43 -88 -110 -95q-41 -2 -101.5 -35.5t-95.5 -37.5 q12 59 103 172q80 100 79 194q0 43 -12 86q-133 111 -264 223q-164 150 -164 287z" />
<glyph unicode="t" horiz-adv-x="768" d="M-66 1167q0 37 58 72h385l18 27q27 129 82 389q4 27 25 194q12 109 63 109q170 0 205 -76q-18 -119 -152 -661q84 -6 179 -21q2 -20 16 -59q-115 -29 -195 -29l-28 -27q-100 -522 -166 -999q-8 -72 -8 -139q0 -39 9 -120t9 -120q0 -4 -10 -15t-10 -16q-127 209 -127 637 q0 217 73 774l-24 11q-402 -1 -402 69z" />
<glyph unicode="u" horiz-adv-x="1447" d="M195 360q0 248 88 471q45 12 88 13q84 0 157 -39q12 -14 13 -43q0 -78 -61.5 -219.5t-61.5 -220.5q0 -33 6 -66q154 57 326 227q137 145 276 293q14 59 30.5 124t55.5 106q55 -20 113 -39q68 -23 84 -74q-8 -135 -80 -569q-8 -49 -74 -164q6 -14 6 -31q0 -16 -23.5 -48 t-39.5 -32q20 0 -39 12q-59 106 -60 275q0 31 5 106q2 68 2 107v49h-35q-115 -137 -322 -309q-47 -35 -139 -113q-49 -47 -88 -47q-74 0 -150.5 78.5t-76.5 152.5z" />
<glyph unicode="v" horiz-adv-x="1263" d="M18 1024q131 96 185 96q20 0 43 -6q25 -23 47 -82q14 -47 31 -94q10 -25 145 -375q86 -223 160 -368h14q123 176 250 354q152 201 285 328q8 1 15 0q53 0 54 -39q-129 -150 -289 -381q-133 -197 -268 -396q2 -8 12.5 -27.5t10.5 -27.5q0 -39 -56 -61q-43 -18 -88 -19 q-12 0 -32 2h-33q-127 219 -262 539q-113 276 -224 557z" />
<glyph unicode="w" horiz-adv-x="1986" d="M172 154q0 117 94 383q78 221 158 372q68 129 98 129q53 0 107 -94v-20q2 -94 -58 -222l-94 -210q-29 -78 -74 -236l11 -16q115 115 284 305q233 260 285 313v8q0 37 64.5 69t105.5 32q29 0 39 -2q49 -14 70 -107q12 -72 26 -141q45 -147 88 -295q63 -168 160 -266 q125 186 125 460q0 61 -6 127q-25 33 -27 60q43 29 68 28q33 0 35 -28q-2 20 -2 -51q0 -12 19 -62.5t19 -91.5q0 -27 -6 -82t-6 -86q0 -29 6 -53q-16 -88 -32 -174q-20 -94 -66 -135q-55 -55 -168 -56q-96 0 -149 41q-125 96 -216 316q-16 33 -131 366q-39 -18 -81 -90 q-57 -57 -142 -162q-27 -41 -83 -120.5t-163 -186.5l-176 -176q-14 -14 -35 -14q-10 0 -73 14q-74 50 -74 154z" />
<glyph unicode="x" horiz-adv-x="1421" d="M-121 -219q29 119 154 246l504 514q-68 68 -136 131q-78 80 -118 147q-20 16 -21 39q0 51 27 51q35 0 168 -123q84 -78 168 -157h12q156 150 487 430q31 -8 64 -16.5t47 -34.5q0 -61 -88 -150l-354 -354v-12q72 -78 232.5 -225.5t236.5 -231.5h-23h-5q-57 0 -122 45 q-53 47 -108 92q-104 78 -306 244q-16 -14 -350 -342q-209 -207 -381 -303q-68 0 -88 10z" />
<glyph unicode="y" horiz-adv-x="1609" d="M-41 -918q14 420 348 795q303 344 725 494l8 10q-2 37 -2 82q0 39 3 120t3 119q0 117 -20 218q-59 -80 -193 -215q-53 -100 -241 -238q-55 -45 -113 -86q-74 -51 -123 -51q-94 0 -141 104q-33 76 -33 184q0 279 148 461q182 -20 182 -149q0 -72 -58.5 -203t-62.5 -197 q18 -8 35 -8q37 0 125 49q117 66 263 214.5t220 273.5q68 -2 88 -86q33 -250 72 -504q14 -14 41 -14q55 0 188 40t203 42q-57 -59 -214 -120t-206 -110q10 -115 10 -225q0 -860 -596 -1260q-127 -84 -258 -84q-147 0 -251 109q-70 73 -150 235zM98 -893q0 -215 176 -215 q113 0 222 74q268 178 413 506q135 301 135 647q0 55 -4 117q-358 -135 -637 -439q-305 -340 -305 -690z" />
<glyph unicode="z" horiz-adv-x="1394" d="M61 -25q0 39 54 78q152 113 395 342q272 250 393 348q2 27 2 21q0 2 -2 6q-72 -4 -352 -20q-215 -12 -348 -13l-56 2q-59 27 -59 107l35 178q174 0 520 -16l324 -21q195 -14 321 -49q-20 -33 -49 -107q-106 -100 -389 -333q-254 -209 -383 -342q-5 1 -10 0q-31 0 -43 -35 q35 0 123 14q80 14 125 15q8 0 22 -3h25q57 0 176 14.5t176 14.5q-14 -57 -70.5 -65.5t-107.5 -12.5q-43 -16 -121 -39q-100 -12 -305 -45q-41 -14 -121 -39l-223 -47q-52 10 -52 47z" />
<glyph unicode="{" horiz-adv-x="800" d="M61 791q0 8 18.5 27.5t22.5 19.5q139 18 191 55q57 51 61 174q8 195 68 608q59 395 477 387q12 0 10 -30q0 -23 -16 -27q-295 -53 -303 -301q-12 -383 -53 -598q-49 -262 -248 -309v-13q203 -53 194 -309q-14 -313 -53 -598q-16 -123 59 -201q68 -74 193 -98 q10 -2 10 -27q-2 -33 -16 -32q-195 -6 -299 86q-111 100 -109 301q6 369 39 608q2 35 2 64q0 141 -141 141q-33 0 -70 -6q-19 33 -37 78z" />
<glyph unicode="|" horiz-adv-x="1202" d="M604 -18q0 299 33 1151l12 329q0 45 2 131q10 37 66 58q47 18 94 18q41 0 41 -22q0 -10 -16 -191l-37 -321q-27 -250 -76 -752q-31 -354 -31 -555q0 -29 3 -88t3 -88q0 -14 -16 -41t-31 -27q-47 1 -47 398z" />
<glyph unicode="}" horiz-adv-x="800" d="M-47 -449q2 25 18 27q289 53 299 299q10 199 54 598q47 260 247 309l4 13q-205 49 -194 309q12 342 53 598q2 25 2 47q0 207 -254 254q-14 4 -10 27q2 31 14 30q195 2 301 -86q111 -100 109 -301q-6 -256 -8 -309q-10 -168 -31 -299q-6 -37 -6 -68q0 -82 53 -116 q45 -31 162 -45q10 0 23.5 -19.5t13.5 -27.5q-4 -12 -20.5 -43t-24.5 -31q-135 6 -189.5 -36t-60.5 -167q-10 -301 -68 -608q-74 -395 -475 -387q-14 -1 -12 32z" />
<glyph unicode="~" horiz-adv-x="1234" d="M602 1589q29 78 129 165t180 87q88 0 146 -78l94 -139q23 -8 55 -8q113 0 250 135l-2 -6q0 -10 6 -32.5t6 -35.5q0 -6 -32.5 -47t-38.5 -57q-14 -39 -74.5 -67.5t-106.5 -28.5q-90 0 -147 69q-43 70 -88 142q-14 2 -27 2q-43 0 -132 -48.5t-115 -87.5q-2 -31 -35 -79 l-8 -2q-37 0 -44 47q-8 61 -16 69z" />
<glyph unicode="&#xa1;" horiz-adv-x="1101" d="M-25 -770q111 233 328 696q59 106 172 322q16 45 55 129q106 248 195 506q4 4 10 4q4 0 15 -4q0 -264 -88 -568q-37 -121 -187 -542q-82 -233 -256 -693q-23 -10 -53 -10q-211 0 -191 160zM610 1200q0 66 107 125q33 0 133 -104q-25 -55 -53 -97q-35 -25 -78 -24 q-109 0 -109 100z" />
<glyph unicode="&#xa2;" horiz-adv-x="1456" d="M186 692q0 133 97 242q74 84 225 166q117 66 235 129q0 131 13.5 392t13.5 394q35 25 80 25q49 0 70 -35q4 -61 4 -133q0 -82 -7.5 -250t-7.5 -254q0 -47 2 -88q39 0 114 16.5t116 16.5q47 0 67.5 -12.5t57.5 -38.5q143 -102 141 -201q-20 -14 -141 -14q-104 0 -357 -76 l-18 -27v-26q0 -39 -6 -111t-6 -105q0 -59 12 -110q20 -2 43 -2q18 0 207 20q-10 -35 -64 -67q-63 -39 -78 -60q-88 -27 -122 -61q-4 -68 -27 -227q-18 -141 -19 -224q0 -16 3.5 -48t3.5 -46q0 -16 -4.5 -45t-4.5 -45q0 -20 2 -57v-64q-33 -10 -65 -43q-20 129 -17 380 t-14 374q-33 -2 -105.5 -6t-113.5 -4q-330 -1 -330 325zM344 565q72 -23 166 -22q106 0 215 28q10 47 10 101q0 160 -22 211q-326 -132 -369 -318z" />
<glyph unicode="&#xa3;" horiz-adv-x="1605" d="M72 -168q0 139 55 160q68 27 377 84q0 381 18 575l-18 19q-59 -4 -176 -31q-31 10 -74 10l-14 -24q-37 33 -105 86l25 20q115 8 362 33q43 256 88 516q61 301 183 487q45 70 120 136q92 80 158 79q23 0 115 -16q291 -55 381 -246q41 -92 41 -145q0 -51 -31 -82 q-43 0 -84 29q-37 109 -72 219q-47 121 -180 121q-121 0 -233 -113q-270 -272 -326 -940l10 -18q113 20 320 47l14 -27q-70 -39 -240 -94q-29 -4 -63.5 -9.5t-50.5 -25.5q-20 -158 -35 -582q233 41 696 103q61 -111 62 -201q0 -70 -39 -68q-16 27 -58 27q-12 0 -38.5 -3 t-40.5 -3q-354 0 -1113 -174l-8 -2q-26 0 -26 53z" />
<glyph unicode="&#xa4;" horiz-adv-x="2809" d="M18 1020q131 100 185 100q20 0 39 -6q29 -23 51 -82l29 -94q12 -25 147 -375q86 -223 160 -368h10q127 176 254 354q152 201 285 328q68 6 69 -41q-129 -147 -289 -379q-133 -197 -268 -396q2 -8 12.5 -27.5t10.5 -27.5q0 -39 -56 -61q-43 -18 -88 -19q-12 0 -32 2h-33 q-127 219 -262 539q-113 277 -224 553zM1206 29q0 145 103 301q145 -27 186 -97v-12q0 -59 -97.5 -126.5t-158.5 -67.5q-15 0 -33 2zM1667 47q0 55 31 76l366 27q-33 346 -32 555q0 201 24 376q16 139 17 205q0 29 -2 53q-4 -6 -183 -168q-147 -133 -174 -133q-37 27 -37 56 q0 14 11 24q29 33 90 90q160 160 213 211q154 137 223 176q18 -20 80 -49q57 -10 65 -57q-121 -565 -121 -1100q0 -88 7 -174q16 -8 39 -35l-13 -30q43 4 94 4q121 0 236 -9l72 -6l2 -6l-21 -36q-12 -22 -59 -19.5t-60 -18.5q-47 -4 -147 -14q-37 -6 -76 -12q-51 -8 -55 -33 q-16 -2 -33 -2q16 0 -86 10q-66 6 -321 10q-33 0 -101 2q-49 7 -49 27z" />
<glyph unicode="&#xa6;" horiz-adv-x="1202" d="M610 135q0 98 4 248q-4 39 0 106q2 18 50 33q39 12 61 13q37 0 37 -31q0 12 -10 -115q-6 -86 -13 -209l-22 -422q-4 -66 -4 -129q-8 -100 -49 -100q-6 0 -13 4q-41 31 -41 602zM623 1180q0 139 8 389q0 66 4 155q4 18 63 39q51 14 78 15q35 0 35 -23q0 -10 -16.5 -182 t-32.5 -365l-27 -256q-4 -47 -16 -139q-8 -29 -41 -29q-55 1 -55 396z" />
<glyph unicode="&#xa8;" horiz-adv-x="1167" d="M823 1661v6q-4 41 80 143q63 -14 70 -14q35 -14 53 -45q-12 -53 -26.5 -101t-90.5 -48q-57 0 -86 59zM1274 1663q0 98 61 147q51 -12 101 -22q57 -20 57 -74q0 -25 -23.5 -48.5t-44.5 -41.5q-37 -41 -137 -41q-14 37 -14 80z" />
<glyph unicode="&#xa9;" horiz-adv-x="2152" d="M133 696q0 401 328 693q317 281 721 280q352 0 590 -213q248 -221 247 -565q0 -403 -316.5 -688t-725.5 -285q-348 0 -590 211q-254 225 -254 567zM256 709q0 -299 221 -490q211 -186 510 -186q354 0 631.5 245.5t277.5 598.5q0 297 -215 491q-209 186 -514 186 q-350 0 -624 -245q-287 -250 -287 -600zM557 635q0 184 120 360t294 256q76 37 262 37q229 0 289 -123q6 -10 6 -24q0 -61 -74 -62q-33 0 -121 47q-8 14 -20 27q-166 0 -316 -129q-137 -115 -206 -287q-33 -72 -33 -139q0 -57 43 -118.5t92 -61.5q178 0 469 164 q125 68 211 131q10 -51 -19 -84l-8 -13q-12 -12 -16 -28q-274 -295 -572 -295q-127 0 -202 57q-104 80 -133 119q-66 76 -66 166z" />
<glyph unicode="&#xab;" horiz-adv-x="1361" d="M168 522q12 35 180 223q154 174 209 226q39 -10 80 -19q20 -8 33 -69l-8 -33q-86 -86 -300 -279l-38 -49q147 -356 274 -461v-12h-35q-248 127 -395 473zM735 537v53q82 113 273 321q18 -6 32 -6q6 0 16.5 3t16.5 3q14 0 39 -47v-41q-61 -74 -125 -147q-96 -121 -96 -146 q0 -43 129 -235q141 -203 162 -268l-23 6q-322 287 -424 504z" />
<glyph unicode="&#xac;" horiz-adv-x="4423" />
<glyph unicode="&#xad;" horiz-adv-x="1351" d="M207 664l82 129q82 4 172 4q111 0 314.5 -7.5t316.5 -7.5q8 -6 31.5 -39.5t23.5 -44.5q0 -16 -39 -34q-55 -27 -57 -27q-158 -12 -494 -33q-74 -39 -309 -53q-45 19 -41 113z" />
<glyph unicode="&#x2212;" horiz-adv-x="1351" d="M207 664l82 129q82 4 172 4q111 0 314.5 -7.5t316.5 -7.5q8 -6 31.5 -39.5t23.5 -44.5q0 -16 -39 -34q-55 -27 -57 -27q-158 -12 -494 -33q-74 -39 -309 -53q-45 19 -41 113z" />
<glyph unicode="&#xae;" horiz-adv-x="2152" d="M133 696q0 401 328 693q317 281 721 280q352 0 590 -213q248 -221 247 -565q0 -403 -316.5 -688t-725.5 -285q-348 0 -590 211q-254 225 -254 567zM256 709q0 -299 221 -490q211 -186 510 -186q354 0 631.5 245.5t277.5 598.5q0 297 -215 491q-209 186 -514 186 q-350 0 -624 -245q-287 -250 -287 -600zM582 1182q0 12 8 26q49 45 162 74q0 -16 -7 -22q16 0 86 8q4 25 8.5 45t30.5 39q61 0 86 -6q41 -12 68 -52h129q215 0 307 -41q39 -14 80 -61t41 -92q0 -113 -135 -195q-86 -47 -332 -162q147 -121 447 -381q-6 -47 -66 -47 q-102 0 -221 88q-18 14 -55 46q-68 53 -138 106q-82 68 -120 123q-14 -6 -27 -12q0 -41 -8 -150q-6 -98 -6 -154v-55q4 -10 4 -18q0 4 0 -21q-39 -29 -74 -28q-27 0 -74 24.5t-47 50.5q0 281 41 625q14 72 39 211l-10 -4q-27 -2 -84.5 -15.5t-77.5 -13.5t-47 29q-8 39 -8 35 zM952 829h6q6 43 60 41q8 -18 16 -39q170 80 273 140q180 100 180 159q0 2 -6 9q-74 49 -252 49q-82 0 -211 -10q-27 -118 -66 -349z" />
<glyph unicode="&#xb0;" horiz-adv-x="966" d="M88 1481q0 92 31 182q35 80 94 172q35 49 72 99.5t102 50.5q37 0 83 -33t34 -64q18 -10 118.5 -36.5t143.5 -53.5q117 -70 117 -250q0 -147 -150.5 -312t-296.5 -165q-154 0 -254 133q-94 121 -94 277zM274 1386q0 -119 56 -204q20 -4 45 -4q74 0 123 30q16 10 77 64 q197 168 197 323q0 47 -22 99q-6 8 -80 75q-39 47 -209 48q-31 0 -78 -76q-14 -27 -49 -94q-60 -126 -60 -261z" />
<glyph unicode="&#xb4;" horiz-adv-x="1167" d="M866 1540l11 35q147 145 456 424q139 4 168 -70q-86 -158 -368 -305q-160 -84 -189 -84h-78z" />
<glyph unicode="&#xb8;" horiz-adv-x="1179" d="M59 -604q0 23 35 14q121 -35 209 -35q180 0 180 129q0 74 -32 109q-47 47 -181 63q-31 2 -30 31q0 23 22 47q131 147 207 193l53 -8q18 -4 60 -5q-100 -74 -152 -141q-12 -14 0 -35q12 -20 51 -24q227 -27 228 -209q0 -47 -19 -90q-74 -174 -330 -172q-131 2 -266 86 q-35 22 -35 47z" />
<glyph unicode="&#xbb;" horiz-adv-x="1361" d="M209 1006l20 -7q315 -274 426 -503v-54q-84 -115 -274 -321q-18 2 -31 2h-16q-10 -2 -15 -2q-16 0 -36 47v41q59 74 120 147q94 121 95 146q0 43 -129 233q-142 203 -160 271zM725 150l6 32q154 147 295 279l41 49q-150 356 -274 461v12h36q238 -127 392 -473 q-12 -35 -181 -223q-154 -174 -209 -226q-74 14 -75 19q-31 15 -31 70z" />
<glyph unicode="&#xbf;" horiz-adv-x="2121" d="M-29 -563q0 100 105 213q92 82 186 164q31 37 98 100q147 131 443 387q35 162 135 477q29 20 59 21q61 0 97 -115q25 -80 24 -162q0 -104 -45 -241q-39 -115 -76 -232q-10 -8 -14 -8q-16 0 -37.5 22.5t-37 22.5t-44 11.5t-45.5 11.5q-20 0 -33 -21q-283 -207 -573 -498 q-47 -41 -127 -131q-31 -35 -31 -67q0 -16 6 -35q106 -82 367 -82q723 0 1200 248q168 84 221 194q-199 154 -503 136q90 33 274 94q231 -35 309 -156q2 -20 2 -45q0 -141 -73 -207q-43 -37 -154 -102q-453 -272 -1202 -273q-72 0 -131 5q-295 8 -379 169q-21 44 -21 99z M946 1114q0 106 152 186q29 2 47 3q47 0 74 -23q10 -33 10 -59q0 -66 -117 -197q-80 14 -166 90z" />
<glyph unicode="&#xc0;" horiz-adv-x="2310" d="M-260 -475q231 330 536 817q45 66 132 193q0 2 2 8l-13 12l-26 -4q-38 5 -107 5q-23 0 -49 -1q-102 20 -149 59q0 4 -5 17v18q0 14 11 23q174 20 430 20q53 43 162 211q141 217 153 232q27 37 195 284q68 94 196 285q-16 41 -49 127q127 45 201 45t97.5 -29.5t35.5 -50.5 q14 -39 41 -113q70 -182 223 -501q172 -346 234 -500q33 -18 20 -47q25 -43 135 -273q80 -166 154 -260q47 -8 47 -43q0 -72 -147 -71q6 0 -175 20q-74 113 -163 320q-117 254 -154 323q-10 18 -28.5 14.5t-28.5 4.5l37 12q-147 309 -437 934q-313 -418 -600 -907 q14 -12 86 -13q20 0 66.5 7.5t68.5 7.5q12 0 35 -4.5t33 -4.5q12 0 35.5 4.5t36.5 4.5q18 0 52 -7.5t50 -7.5q10 0 28.5 3t28.5 3q16 0 52.5 -3t54.5 -3q23 0 63 2h66q49 0 86 -14h63q45 -2 64 -2q0 -6 -37 -18l10 -13l-47 -14q-172 8 -260 8q-135 0 -180 -8q-27 -8 -82 -19 q-74 -2 -225 -16q-80 0 -238 -24q-51 -63 -104 -170q-6 -14 -62 -93q-66 -86 -129 -170q-84 -113 -116 -180q-10 -27 -73 -120t-124 -187q-82 -119 -139 -172q-8 -2 -17 -2q-37 0 -57 35v6zM832 2519q27 74 168 70q127 -106 455 -424l8 -35h-74q-33 0 -190 84 q-285 147 -367 305z" />
<glyph unicode="&#xc1;" horiz-adv-x="2310" d="M-260 -475q231 330 536 817q45 66 132 193q0 2 2 8l-13 12l-26 -4q-38 5 -107 5q-23 0 -49 -1q-102 20 -149 59q0 4 -5 17v18q0 14 11 23q174 20 430 20q53 43 162 211q141 217 153 232q27 37 195 284q68 94 196 285q-16 41 -49 127q127 45 201 45t97.5 -29.5t35.5 -50.5 q14 -39 41 -113q70 -182 223 -501q172 -346 234 -500q33 -18 20 -47q25 -43 135 -273q80 -166 154 -260q47 -8 47 -43q0 -72 -147 -71q6 0 -175 20q-74 113 -163 320q-117 254 -154 323q-10 18 -28.5 14.5t-28.5 4.5l37 12q-147 309 -437 934q-313 -418 -600 -907 q14 -12 86 -13q20 0 66.5 7.5t68.5 7.5q12 0 35 -4.5t33 -4.5q12 0 35.5 4.5t36.5 4.5q18 0 52 -7.5t50 -7.5q10 0 28.5 3t28.5 3q16 0 52.5 -3t54.5 -3q23 0 63 2h66q49 0 86 -14h63q45 -2 64 -2q0 -6 -37 -18l10 -13l-47 -14q-172 8 -260 8q-135 0 -180 -8q-27 -8 -82 -19 q-74 -2 -225 -16q-80 0 -238 -24q-51 -63 -104 -170q-6 -14 -62 -93q-66 -86 -129 -170q-84 -113 -116 -180q-10 -27 -73 -120t-124 -187q-82 -119 -139 -172q-8 -2 -17 -2q-37 0 -57 35v6zM1022 2095l11 35q147 145 456 424q139 4 168 -70q-86 -158 -368 -305 q-160 -84 -189 -84h-78z" />
<glyph unicode="&#xc2;" horiz-adv-x="2310" d="M-260 -475q231 330 536 817q45 66 132 193q0 2 2 8l-13 12l-26 -4q-38 5 -107 5q-23 0 -49 -1q-102 20 -149 59q0 4 -5 17v18q0 14 11 23q174 20 430 20q53 43 162 211q141 217 153 232q27 37 195 284q68 94 196 285q-16 41 -49 127q127 45 201 45t97.5 -29.5t35.5 -50.5 q14 -39 41 -113q70 -182 223 -501q172 -346 234 -500q33 -18 20 -47q25 -43 135 -273q80 -166 154 -260q47 -8 47 -43q0 -72 -147 -71q6 0 -175 20q-74 113 -163 320q-117 254 -154 323q-10 18 -28.5 14.5t-28.5 4.5l37 12q-147 309 -437 934q-313 -418 -600 -907 q14 -12 86 -13q20 0 66.5 7.5t68.5 7.5q12 0 35 -4.5t33 -4.5q12 0 35.5 4.5t36.5 4.5q18 0 52 -7.5t50 -7.5q10 0 28.5 3t28.5 3q16 0 52.5 -3t54.5 -3q23 0 63 2h66q49 0 86 -14h63q45 -2 64 -2q0 -6 -37 -18l10 -13l-47 -14q-172 8 -260 8q-135 0 -180 -8q-27 -8 -82 -19 q-74 -2 -225 -16q-80 0 -238 -24q-51 -63 -104 -170q-6 -14 -62 -93q-66 -86 -129 -170q-84 -113 -116 -180q-10 -27 -73 -120t-124 -187q-82 -119 -139 -172q-8 -2 -17 -2q-37 0 -57 35v6zM876 1962q0 41 22.5 85t267.5 244.5t280 200.5q14 0 47 -23q141 -104 239 -333 q14 -35 15 -39q0 -14 -23.5 -58.5t-38.5 -44.5q-10 0 -13 7.5t-5 13.5l-6 6q-229 283 -264 283q-39 0 -265 -183l-155 -127q-74 -59 -86 -59q-15 0 -15 27z" />
<glyph unicode="&#xc3;" horiz-adv-x="2310" d="M-260 -475q231 330 536 817q45 66 132 193q0 2 2 8l-13 12l-26 -4q-38 5 -107 5q-23 0 -49 -1q-102 20 -149 59q0 4 -5 17v18q0 14 11 23q174 20 430 20q53 43 162 211q141 217 153 232q27 37 195 284q68 94 196 285q-16 41 -49 127q127 45 201 45t97.5 -29.5t35.5 -50.5 q14 -39 41 -113q70 -182 223 -501q172 -346 234 -500q33 -18 20 -47q25 -43 135 -273q80 -166 154 -260q47 -8 47 -43q0 -72 -147 -71q6 0 -175 20q-74 113 -163 320q-117 254 -154 323q-10 18 -28.5 14.5t-28.5 4.5l37 12q-147 309 -437 934q-313 -418 -600 -907 q14 -12 86 -13q20 0 66.5 7.5t68.5 7.5q12 0 35 -4.5t33 -4.5q12 0 35.5 4.5t36.5 4.5q18 0 52 -7.5t50 -7.5q10 0 28.5 3t28.5 3q16 0 52.5 -3t54.5 -3q23 0 63 2h66q49 0 86 -14h63q45 -2 64 -2q0 -6 -37 -18l10 -13l-47 -14q-172 8 -260 8q-135 0 -180 -8q-27 -8 -82 -19 q-74 -2 -225 -16q-80 0 -238 -24q-51 -63 -104 -170q-6 -14 -62 -93q-66 -86 -129 -170q-84 -113 -116 -180q-10 -27 -73 -120t-124 -187q-82 -119 -139 -172q-8 -2 -17 -2q-37 0 -57 35v6zM881 2210q29 80 129 167t180 87q88 0 143 -78q47 -70 94 -141q25 -8 58 -8 q111 0 250 137l-2 -4q0 -12 5 -36t5 -36q0 -6 -32 -47t-38 -59q-14 -39 -74.5 -67t-105.5 -28q-92 0 -147 72q-45 70 -88 141h-27q-45 0 -133 -49t-115 -88q-4 -29 -35 -78h-10q-35 0 -41 48q-8 57 -16 67z" />
<glyph unicode="&#xc4;" horiz-adv-x="2310" d="M-260 -475q231 330 536 817q45 66 132 193q0 2 2 8l-13 12l-26 -4q-38 5 -107 5q-23 0 -49 -1q-102 20 -149 59q0 4 -5 17v18q0 14 11 23q174 20 430 20q53 43 162 211q141 217 153 232q27 37 195 284q68 94 196 285q-16 41 -49 127q127 45 201 45t97.5 -29.5t35.5 -50.5 q14 -39 41 -113q70 -182 223 -501q172 -346 234 -500q33 -18 20 -47q25 -43 135 -273q80 -166 154 -260q47 -8 47 -43q0 -72 -147 -71q6 0 -175 20q-74 113 -163 320q-117 254 -154 323q-10 18 -28.5 14.5t-28.5 4.5l37 12q-147 309 -437 934q-313 -418 -600 -907 q14 -12 86 -13q20 0 66.5 7.5t68.5 7.5q12 0 35 -4.5t33 -4.5q12 0 35.5 4.5t36.5 4.5q18 0 52 -7.5t50 -7.5q10 0 28.5 3t28.5 3q16 0 52.5 -3t54.5 -3q23 0 63 2h66q49 0 86 -14h63q45 -2 64 -2q0 -6 -37 -18l10 -13l-47 -14q-172 8 -260 8q-135 0 -180 -8q-27 -8 -82 -19 q-74 -2 -225 -16q-80 0 -238 -24q-51 -63 -104 -170q-6 -14 -62 -93q-66 -86 -129 -170q-84 -113 -116 -180q-10 -27 -73 -120t-124 -187q-82 -119 -139 -172q-8 -2 -17 -2q-37 0 -57 35v6zM1011 2179v6q-4 41 80 143q63 -14 70 -14q35 -14 53 -45q-12 -53 -26.5 -101 t-90.5 -48q-57 0 -86 59zM1462 2181q0 98 61 147q51 -12 101 -22q57 -20 57 -74q0 -25 -23.5 -48.5t-44.5 -41.5q-37 -41 -137 -41q-14 37 -14 80z" />
<glyph unicode="&#xc5;" horiz-adv-x="2310" d="M-260 -475q231 330 536 817q45 66 132 193q0 2 2 8l-13 12l-26 -4q-38 5 -107 5q-23 0 -49 -1q-102 20 -149 59q0 4 -5 17v18q0 14 11 23q174 20 430 20q53 43 162 211q141 217 153 232q27 37 195 284q68 94 196 285q-16 41 -49 127q127 45 201 45t97.5 -29.5t35.5 -50.5 q14 -39 41 -113q70 -182 223 -501q172 -346 234 -500q33 -18 20 -47q25 -43 135 -273q80 -166 154 -260q47 -8 47 -43q0 -72 -147 -71q6 0 -175 20q-74 113 -163 320q-117 254 -154 323q-10 18 -28.5 14.5t-28.5 4.5l37 12q-147 309 -437 934q-313 -418 -600 -907 q14 -12 86 -13q20 0 66.5 7.5t68.5 7.5q12 0 35 -4.5t33 -4.5q12 0 35.5 4.5t36.5 4.5q18 0 52 -7.5t50 -7.5q10 0 28.5 3t28.5 3q16 0 52.5 -3t54.5 -3q23 0 63 2h66q49 0 86 -14h63q45 -2 64 -2q0 -6 -37 -18l10 -13l-47 -14q-172 8 -260 8q-135 0 -180 -8q-27 -8 -82 -19 q-74 -2 -225 -16q-80 0 -238 -24q-51 -63 -104 -170q-6 -14 -62 -93q-66 -86 -129 -170q-84 -113 -116 -180q-10 -27 -73 -120t-124 -187q-82 -119 -139 -172q-8 -2 -17 -2q-37 0 -57 35v6zM1071 2244q0 106 75 182t179 76q106 0 181 -75.5t75 -182.5q0 -102 -74.5 -178 t-181.5 -76q-104 0 -179 76t-75 178zM1151 2244q0 -70 51 -122t123 -52q74 0 125 52.5t51 121.5q0 74 -51 126.5t-125 52.5q-72 0 -123 -52.5t-51 -126.5z" />
<glyph unicode="&#xc6;" horiz-adv-x="2727" d="M-260 -475q231 330 536 817q45 66 132 193q0 2 2 8l-13 12l-26 -4q-51 6 -156 4q-102 20 -149 59q0 4 -5 17v18q0 14 11 23q174 20 430 20q53 43 162 211q141 215 153 232q27 37 195 284q68 94 196 285q-2 39 -16 113q141 55 188 55q66 0 113 -76l6 -18l848 4 q104 0 199 -4q14 -27 14 -47t-12 -37q-281 -10 -840 -31l-12 -16v-238l12 -10q47 -4 100 -4q55 0 165 3t165 3q74 0 135 -2q12 -16 13 -45q0 -51 -27 -56q2 0 -68 0q-25 0 -39 -10l-32 4q-131 -12 -400 -18q-12 6 -32 -21q-4 -14 -5 -280q0 -397 33 -850q29 -29 471 -29 q-29 0 461 6q14 12 31 13q8 0 24 -7q12 -27 13 -57q0 -84 -27 -84q-6 0 -16 2q-6 18 -25 53q-123 -12 -395 -12q-86 0 -254 3t-250 3q-18 0 -20 -12v-29q-18 -27 -60 -28q-68 -6 -67 -11q-45 10 -86 19q-53 14 -74 45q-49 2 -156 2q-35 0 -57 8q-43 41 -43 90q0 16 8 25 q31 -4 88 -4q27 0 80 2t80 2q-8 172 -29 516q-72 4 -131 4q-143 0 -174 -7t-90 -20q-74 0 -219 -14q-80 0 -238 -24q-45 -59 -104 -170q-6 -14 -62 -93q-66 -86 -129 -170q-80 -111 -116 -180q-10 -31 -73 -122t-124 -185q-80 -115 -139 -172q-8 -2 -17 -2q-37 0 -57 35v6z M651 709q14 -12 86 -13q20 0 66.5 7.5t68.5 7.5q12 0 35 -4.5t33 -4.5q12 0 35.5 4.5t36.5 4.5q18 0 52 -7.5t50 -7.5q10 0 28.5 3t28.5 3q23 0 73 -3t75 -3q106 0 94 0q-10 328 -10 512v158q0 117 6 283q-74 -6 -82 -7q-47 -8 -76 -26q-313 -418 -600 -907z" />
<glyph unicode="&#xc7;" horiz-adv-x="1937" d="M88 369q0 360 174 710q254 508 629 752q20 12 117 72q23 20 73 43q0 4 11 0q20 10 49 43q6 -4 12 -4q2 0 10 6t16.5 13t38 14t42.5 26q250 100 337 100q51 0 99 -14l297 -84q104 -29 110 -90q2 -10 2 -14q0 -31 -55 -31q-6 0 -20 4h-25q-6 27 -35 67h-28q-8 0 -17 1 q-410 0 -846 -295q-367 -246 -610 -723q-186 -369 -186 -658q0 -254 118 -442q139 -219 377 -219q209 0 416 100q121 59 367 229q184 131 315 248q8 4 28.5 20.5t30.5 16.5h9q12 -12 12 -24q0 -8 -19.5 -25.5t-21.5 -30.5q-360 -348 -473 -426q-283 -199 -592 -198 q-334 0 -549 241q-213 230 -213 572zM368 -948q0 23 35 14q121 -35 209 -35q180 0 180 129q0 74 -32 109q-47 47 -181 63q-31 2 -30 31q0 23 22 47q131 147 207 193l53 -8q18 -4 60 -5q-100 -74 -152 -141q-12 -14 0 -35q12 -20 51 -24q227 -27 228 -209q0 -47 -19 -90 q-74 -174 -330 -172q-131 2 -266 86q-35 22 -35 47z" />
<glyph unicode="&#xc8;" horiz-adv-x="1570" d="M41 98q0 16 12 25q27 -4 88 -4q25 0 77 2t79 2q-35 586 -35 1143q0 68 4 196v195q0 14 -26 20q-18 4 -54 0q-51 -2 -41 -2q-43 0 -57 29l-6 41q0 25 18 39q129 -2 1018 -2h164q39 0 119 -4q18 -29 18 -49t-12 -35l-842 -31l-10 -16v-238l10 -10q45 -4 99 -4q55 0 165.5 3 t167.5 3q74 0 133 -2q14 -16 15 -45q0 -51 -31 -56q6 0 -67 0q-23 0 -35 -10l-33 4q-133 -12 -401 -18q-14 4 -35 -21q-2 -2 -2 -233q0 -471 30 -897q31 -29 476 -29q-2 0 -2.5 0.5t458.5 5.5q16 12 31 13q12 0 27 -7q12 -31 12 -59q0 -82 -27 -82q-6 0 -18 2q-4 18 -25 53 q-123 -12 -395 -12q-82 0 -250 3t-254 3q-16 0 -16 -13t-4 -28q-18 -27 -60 -28q-63 -6 -67 -11q-41 10 -88 21.5t-72 42.5q-47 2 -156 2q-33 0 -53 8q-47 41 -47 90zM365 2365q27 74 168 70q127 -106 455 -424l8 -35h-74q-33 0 -190 84q-285 147 -367 305z" />
<glyph unicode="&#xc9;" horiz-adv-x="1570" d="M41 98q0 16 12 25q27 -4 88 -4q25 0 77 2t79 2q-35 586 -35 1143q0 68 4 196v195q0 14 -26 20q-18 4 -54 0q-51 -2 -41 -2q-43 0 -57 29l-6 41q0 25 18 39q129 -2 1018 -2h164q39 0 119 -4q18 -29 18 -49t-12 -35l-842 -31l-10 -16v-238l10 -10q45 -4 99 -4q55 0 165.5 3 t167.5 3q74 0 133 -2q14 -16 15 -45q0 -51 -31 -56q6 0 -67 0q-23 0 -35 -10l-33 4q-133 -12 -401 -18q-14 4 -35 -21q-2 -2 -2 -233q0 -471 30 -897q31 -29 476 -29q-2 0 -2.5 0.5t458.5 5.5q16 12 31 13q12 0 27 -7q12 -31 12 -59q0 -82 -27 -82q-6 0 -18 2q-4 18 -25 53 q-123 -12 -395 -12q-82 0 -250 3t-254 3q-16 0 -16 -13t-4 -28q-18 -27 -60 -28q-63 -6 -67 -11q-41 10 -88 21.5t-72 42.5q-47 2 -156 2q-33 0 -53 8q-47 41 -47 90zM538 1997l11 35q147 145 456 424q139 4 168 -70q-86 -158 -368 -305q-160 -84 -189 -84h-78z" />
<glyph unicode="&#xca;" horiz-adv-x="1570" d="M41 98q0 16 12 25q27 -4 88 -4q25 0 77 2t79 2q-35 586 -35 1143q0 68 4 196v195q0 14 -26 20q-18 4 -54 0q-51 -2 -41 -2q-43 0 -57 29l-6 41q0 25 18 39q129 -2 1018 -2h164q39 0 119 -4q18 -29 18 -49t-12 -35l-842 -31l-10 -16v-238l10 -10q45 -4 99 -4q55 0 165.5 3 t167.5 3q74 0 133 -2q14 -16 15 -45q0 -51 -31 -56q6 0 -67 0q-23 0 -35 -10l-33 4q-133 -12 -401 -18q-14 4 -35 -21q-2 -2 -2 -233q0 -471 30 -897q31 -29 476 -29q-2 0 -2.5 0.5t458.5 5.5q16 12 31 13q12 0 27 -7q12 -31 12 -59q0 -82 -27 -82q-6 0 -18 2q-4 18 -25 53 q-123 -12 -395 -12q-82 0 -250 3t-254 3q-16 0 -16 -13t-4 -28q-18 -27 -60 -28q-63 -6 -67 -11q-41 10 -88 21.5t-72 42.5q-47 2 -156 2q-33 0 -53 8q-47 41 -47 90zM397 1967q0 41 22.5 85t267.5 244.5t280 200.5q14 0 47 -23q141 -104 239 -333q14 -35 15 -39 q0 -14 -23.5 -58.5t-38.5 -44.5q-10 0 -13 7.5t-5 13.5l-6 6q-229 283 -264 283q-39 0 -265 -183l-155 -127q-74 -59 -86 -59q-15 0 -15 27z" />
<glyph unicode="&#xcb;" horiz-adv-x="1570" d="M41 98q0 16 12 25q27 -4 88 -4q25 0 77 2t79 2q-35 586 -35 1143q0 68 4 196v195q0 14 -26 20q-18 4 -54 0q-51 -2 -41 -2q-43 0 -57 29l-6 41q0 25 18 39q129 -2 1018 -2h164q39 0 119 -4q18 -29 18 -49t-12 -35l-842 -31l-10 -16v-238l10 -10q45 -4 99 -4q55 0 165.5 3 t167.5 3q74 0 133 -2q14 -16 15 -45q0 -51 -31 -56q6 0 -67 0q-23 0 -35 -10l-33 4q-133 -12 -401 -18q-14 4 -35 -21q-2 -2 -2 -233q0 -471 30 -897q31 -29 476 -29q-2 0 -2.5 0.5t458.5 5.5q16 12 31 13q12 0 27 -7q12 -31 12 -59q0 -82 -27 -82q-6 0 -18 2q-4 18 -25 53 q-123 -12 -395 -12q-82 0 -250 3t-254 3q-16 0 -16 -13t-4 -28q-18 -27 -60 -28q-63 -6 -67 -11q-41 10 -88 21.5t-72 42.5q-47 2 -156 2q-33 0 -53 8q-47 41 -47 90zM504 2056v6q-4 41 80 143q63 -14 70 -14q35 -14 53 -45q-12 -53 -26.5 -101t-90.5 -48q-57 0 -86 59z M955 2058q0 98 61 147q51 -12 101 -22q57 -20 57 -74q0 -25 -23.5 -48.5t-44.5 -41.5q-37 -41 -137 -41q-14 37 -14 80z" />
<glyph unicode="&#xcc;" horiz-adv-x="909" d="M25 1688l20 32q63 0 202.5 2t207.5 2q37 0 108 -2h109q201 0 194 2q33 -10 99 -26q0 -4 -9 -35q-16 0 -194 -16q-45 -10 -133 -19q2 -12 11 -36.5t9 -41.5l-26 -174q-47 -305 -48 -745q0 -113 3 -295q4 -223 4 -291l10 -20q78 -4 227 -27q-16 -18 -67 -18 q-29 -14 -95.5 -17.5t-101.5 -17.5q-20 -10 -53 -11q-18 0 -48 8.5t-40 10.5q10 -2 -54 -2q-45 0 -130 2t-128 2q-20 12 -38.5 22.5t-28.5 40.5q4 2 10 2q41 0 125 6.5t125 6.5q14 12 14 39q0 14 -4 40.5t-4 41.5q0 20 14 28q0 100 -3 300t-3 296q0 182 35 842l-2 8h-29h-30 q-135 1 -258 60zM-6 2332q27 74 168 70q127 -106 455 -424l8 -35h-74q-33 0 -190 84q-285 147 -367 305z" />
<glyph unicode="&#xcd;" horiz-adv-x="909" d="M25 1688l20 32q63 0 202.5 2t207.5 2q37 0 108 -2h109q201 0 194 2q33 -10 99 -26q0 -4 -9 -35q-16 0 -194 -16q-45 -10 -133 -19q2 -12 11 -36.5t9 -41.5l-26 -174q-47 -305 -48 -745q0 -113 3 -295q4 -223 4 -291l10 -20q78 -4 227 -27q-16 -18 -67 -18 q-29 -14 -95.5 -17.5t-101.5 -17.5q-20 -10 -53 -11q-18 0 -48 8.5t-40 10.5q10 -2 -54 -2q-45 0 -130 2t-128 2q-20 12 -38.5 22.5t-28.5 40.5q4 2 10 2q41 0 125 6.5t125 6.5q14 12 14 39q0 14 -4 40.5t-4 41.5q0 20 14 28q0 100 -3 300t-3 296q0 182 35 842l-2 8h-29h-30 q-135 1 -258 60zM323 1943l11 35q147 145 456 424q139 4 168 -70q-86 -158 -368 -305q-160 -84 -189 -84h-78z" />
<glyph unicode="&#xce;" horiz-adv-x="909" d="M25 1688l20 32q63 0 202.5 2t207.5 2q37 0 108 -2h109q201 0 194 2q33 -10 99 -26q0 -4 -9 -35q-16 0 -194 -16q-45 -10 -133 -19q2 -12 11 -36.5t9 -41.5l-26 -174q-47 -305 -48 -745q0 -113 3 -295q4 -223 4 -291l10 -20q78 -4 227 -27q-16 -18 -67 -18 q-29 -14 -95.5 -17.5t-101.5 -17.5q-20 -10 -53 -11q-18 0 -48 8.5t-40 10.5q10 -2 -54 -2q-45 0 -130 2t-128 2q-20 12 -38.5 22.5t-28.5 40.5q4 2 10 2q41 0 125 6.5t125 6.5q14 12 14 39q0 14 -4 40.5t-4 41.5q0 20 14 28q0 100 -3 300t-3 296q0 182 35 842l-2 8h-29h-30 q-135 1 -258 60zM61 1889q0 41 22.5 85t267.5 244.5t280 200.5q14 0 47 -23q141 -104 239 -333q14 -35 15 -39q0 -14 -23.5 -58.5t-38.5 -44.5q-10 0 -13 7.5t-5 13.5l-6 6q-229 283 -264 283q-39 0 -265 -183l-155 -127q-74 -59 -86 -59q-15 0 -15 27z" />
<glyph unicode="&#xcf;" horiz-adv-x="909" d="M25 1688l20 32q63 0 202.5 2t207.5 2q37 0 108 -2h109q201 0 194 2q33 -10 99 -26q0 -4 -9 -35q-16 0 -194 -16q-45 -10 -133 -19q2 -12 11 -36.5t9 -41.5l-26 -174q-47 -305 -48 -745q0 -113 3 -295q4 -223 4 -291l10 -20q78 -4 227 -27q-16 -18 -67 -18 q-29 -14 -95.5 -17.5t-101.5 -17.5q-20 -10 -53 -11q-18 0 -48 8.5t-40 10.5q10 -2 -54 -2q-45 0 -130 2t-128 2q-20 12 -38.5 22.5t-28.5 40.5q4 2 10 2q41 0 125 6.5t125 6.5q14 12 14 39q0 14 -4 40.5t-4 41.5q0 20 14 28q0 100 -3 300t-3 296q0 182 35 842l-2 8h-29h-30 q-135 1 -258 60zM207 2058v6q-4 41 80 143q63 -14 70 -14q35 -14 53 -45q-12 -53 -26.5 -101t-90.5 -48q-57 0 -86 59zM658 2060q0 98 61 147q51 -12 101 -22q57 -20 57 -74q0 -25 -23.5 -48.5t-44.5 -41.5q-37 -41 -137 -41q-14 37 -14 80z" />
<glyph unicode="&#xd1;" horiz-adv-x="2037" d="M295 518q0 700 55 1366q18 14 60 21q61 10 65 10q41 10 70 10q63 0 117.5 -63.5t54.5 -124.5q0 -23 -7.5 -70t-9.5 -65.5t-10 -55.5t-8 -53q0 -39 43 -74q68 -59 299 -307l26 -22t68 -58t96 -85t109.5 -101.5t109 -110.5t95 -110t67 -100.5t25.5 -82.5v461q0 268 31 748 q39 10 71 10q96 0 142 -68q-8 -174 -62 -641q-42 -357 -41 -585v-58v-43q55 -70 56 -94q0 -31 -46.5 -67.5t-46.5 -77.5l-30 -74q-16 23 -27.5 81t-19.5 72q-37 39 -99 113q-215 258 -430 520q-260 313 -454 502q-12 -55 -25 -149q-51 -520 -51 -936q0 -244 16 -459 q-23 -63 -153 -64q-33 0 -67 39t-62 45l-13 29q-14 401 -14 772zM824 2144q29 80 129 167t180 87q88 0 143 -78q47 -70 94 -141q25 -8 58 -8q111 0 250 137l-2 -4q0 -12 5 -36t5 -36q0 -6 -32 -47t-38 -59q-14 -39 -74.5 -67t-105.5 -28q-92 0 -147 72q-45 70 -88 141h-27 q-45 0 -133 -49t-115 -88q-4 -29 -35 -78h-10q-35 0 -41 48q-8 57 -16 67z" />
<glyph unicode="&#xd2;" horiz-adv-x="2287" d="M129 791q0 307 246 690q2 27 69 80q74 63 152 129q88 72 168 98q147 -6 166 -137q369 0 579 -43q315 -72 514 -262q186 -180 187 -490q0 -152 -51 -278q-82 -211 -463 -476q-256 -176 -602 -176q-311 0 -537 150q-188 125 -303 305q-125 197 -125 410zM389 655 q0 -301 227 -487q121 -100 318 -100q139 0 338 77q55 20 164 74q141 84 280 264q129 172 193 336q29 86 28 193q0 143 -92 270q-23 33 -76 100q-193 201 -639 201q-66 0 -239 -6q-215 -182 -348 -410q-154 -258 -154 -512zM852 2337q27 74 168 70q127 -106 455 -424l8 -35 h-74q-33 0 -190 84q-285 147 -367 305z" />
<glyph unicode="&#xd3;" horiz-adv-x="2287" d="M129 791q0 307 246 690q2 27 69 80q74 63 152 129q88 72 168 98q147 -6 166 -137q369 0 579 -43q315 -72 514 -262q186 -180 187 -490q0 -152 -51 -278q-82 -211 -463 -476q-256 -176 -602 -176q-311 0 -537 150q-188 125 -303 305q-125 197 -125 410zM389 655 q0 -301 227 -487q121 -100 318 -100q139 0 338 77q55 20 164 74q141 84 280 264q129 172 193 336q29 86 28 193q0 143 -92 270q-23 33 -76 100q-193 201 -639 201q-66 0 -239 -6q-215 -182 -348 -410q-154 -258 -154 -512zM1153 1880l11 35q147 145 456 424q139 4 168 -70 q-86 -158 -368 -305q-160 -84 -189 -84h-78z" />
<glyph unicode="&#xd4;" horiz-adv-x="2287" d="M129 791q0 307 246 690q2 27 69 80q74 63 152 129q88 72 168 98q147 -6 166 -137q369 0 579 -43q315 -72 514 -262q186 -180 187 -490q0 -152 -51 -278q-82 -211 -463 -476q-256 -176 -602 -176q-311 0 -537 150q-188 125 -303 305q-125 197 -125 410zM389 655 q0 -301 227 -487q121 -100 318 -100q139 0 338 77q55 20 164 74q141 84 280 264q129 172 193 336q29 86 28 193q0 143 -92 270q-23 33 -76 100q-193 201 -639 201q-66 0 -239 -6q-215 -182 -348 -410q-154 -258 -154 -512zM903 1893q0 41 22.5 85t267.5 244.5t280 200.5 q14 0 47 -23q141 -104 239 -333q14 -35 15 -39q0 -14 -23.5 -58.5t-38.5 -44.5q-10 0 -13 7.5t-5 13.5l-6 6q-229 283 -264 283q-39 0 -265 -183l-155 -127q-74 -59 -86 -59q-15 0 -15 27z" />
<glyph unicode="&#xd5;" horiz-adv-x="2287" d="M129 791q0 307 246 690q2 27 69 80q74 63 152 129q88 72 168 98q147 -6 166 -137q369 0 579 -43q315 -72 514 -262q186 -180 187 -490q0 -152 -51 -278q-82 -211 -463 -476q-256 -176 -602 -176q-311 0 -537 150q-188 125 -303 305q-125 197 -125 410zM389 655 q0 -301 227 -487q121 -100 318 -100q139 0 338 77q55 20 164 74q141 84 280 264q129 172 193 336q29 86 28 193q0 143 -92 270q-23 33 -76 100q-193 201 -639 201q-66 0 -239 -6q-215 -182 -348 -410q-154 -258 -154 -512zM850 2075q29 80 129 167t180 87q88 0 143 -78 q47 -70 94 -141q25 -8 58 -8q111 0 250 137l-2 -4q0 -12 5 -36t5 -36q0 -6 -32 -47t-38 -59q-14 -39 -74.5 -67t-105.5 -28q-92 0 -147 72q-45 70 -88 141h-27q-45 0 -133 -49t-115 -88q-4 -29 -35 -78h-10q-35 0 -41 48q-8 57 -16 67z" />
<glyph unicode="&#xd6;" horiz-adv-x="2287" d="M129 791q0 307 246 690q2 27 69 80q74 63 152 129q88 72 168 98q147 -6 166 -137q369 0 579 -43q315 -72 514 -262q186 -180 187 -490q0 -152 -51 -278q-82 -211 -463 -476q-256 -176 -602 -176q-311 0 -537 150q-188 125 -303 305q-125 197 -125 410zM389 655 q0 -301 227 -487q121 -100 318 -100q139 0 338 77q55 20 164 74q141 84 280 264q129 172 193 336q29 86 28 193q0 143 -92 270q-23 33 -76 100q-193 201 -639 201q-66 0 -239 -6q-215 -182 -348 -410q-154 -258 -154 -512zM1005 2044v6q-4 41 80 143q63 -14 70 -14 q35 -14 53 -45q-12 -53 -26.5 -101t-90.5 -48q-57 0 -86 59zM1456 2046q0 98 61 147q51 -12 101 -22q57 -20 57 -74q0 -25 -23.5 -48.5t-44.5 -41.5q-37 -41 -137 -41q-14 37 -14 80z" />
<glyph unicode="&#xd7;" horiz-adv-x="1368" d="M92 154q137 160 418 485v16q-123 150 -174 224q-86 133 -115 256q27 18 45 18q35 0 31 0q37 -20 65 -86q25 -49 46 -102q2 0 174 -215h14q92 111 244 268q233 233 258 260q82 -18 82 -96q0 -37 -33 -83t-66 -85q-4 -14 -22 -43q-45 -45 -119 -127q-129 -141 -223 -266 l2 -17q195 -184 239 -219q168 -141 269 -156v-10q0 -37 -68 -37q-139 0 -514 344q-252 -268 -399 -497q-23 -14 -45 -15q-33 0 -66 23q-43 56 -43 160z" />
<glyph unicode="&#xd8;" horiz-adv-x="2287" d="M129 791q0 307 246 690q2 27 69 80q74 63 152 129q88 72 168 98q147 -6 166 -137q479 0 739 -90q147 162 266 280q70 0 70 -39q0 -12 -6 -28.5t-109 -137.5q-45 -53 -106 -123q135 -66 239 -167q186 -180 187 -490q0 -152 -51 -278q-82 -211 -463 -476 q-256 -176 -602 -176q-309 0 -533 148q-70 -82 -201 -277q-27 -18 -59 -18q-41 6 -50 32.5t-18 59.5q76 135 175 229q23 27 47 54q-326 275 -326 637zM389 655q0 -233 152 -409q195 238 553 659q168 199 516 594q-174 84 -480 84q-66 0 -239 -6q-215 -182 -348 -410 q-154 -258 -154 -512zM614 172l2 -4q121 -100 318 -100q139 0 338 77q55 20 164 74q141 84 280 264q129 172 193 336q29 86 28 193q0 143 -92 270q-35 53 -131 152q-92 -98 -258 -279q-592 -651 -842 -983z" />
<glyph unicode="&#xd9;" horiz-adv-x="2013" d="M180 543q0 602 103 1065q12 61 39 88q102 12 127 12q141 0 141 -100q0 -14 -6 -31q-135 -518 -135 -1061q0 -150 6 -197q8 -80 32 -172q35 -135 74 -135q4 0 17 13q152 168 383 571q33 55 99 171t232 478q47 88 117 264q31 98 39 154q59 20 119 20q74 0 121 -34l20 -41 v-37q0 -357 76 -828q74 -428 151 -856l-10 -37q-49 -43 -76 -57q-47 -29 -88 -35q-53 82 -80 222q-20 115 -41 233q-145 600 -186 1200q-27 -27 -80 -172l-86 -190q-63 -160 -209 -473q-35 -59 -108 -181q-18 -37 -53 -110q-127 -233 -246 -320q-43 -33 -115 -33 q-115 0 -203 68q-174 140 -174 541zM524 2291q27 74 168 70q127 -106 455 -424l8 -35h-74q-33 0 -190 84q-285 147 -367 305z" />
<glyph unicode="&#xda;" horiz-adv-x="2013" d="M180 543q0 602 103 1065q12 61 39 88q102 12 127 12q141 0 141 -100q0 -14 -6 -31q-135 -518 -135 -1061q0 -150 6 -197q8 -80 32 -172q35 -135 74 -135q4 0 17 13q152 168 383 571q33 55 99 171t232 478q47 88 117 264q31 98 39 154q59 20 119 20q74 0 121 -34l20 -41 v-37q0 -357 76 -828q74 -428 151 -856l-10 -37q-49 -43 -76 -57q-47 -29 -88 -35q-53 82 -80 222q-20 115 -41 233q-145 600 -186 1200q-27 -27 -80 -172l-86 -190q-63 -160 -209 -473q-35 -59 -108 -181q-18 -37 -53 -110q-127 -233 -246 -320q-43 -33 -115 -33 q-115 0 -203 68q-174 140 -174 541zM886 1923l11 35q147 145 456 424q139 4 168 -70q-86 -158 -368 -305q-160 -84 -189 -84h-78z" />
<glyph unicode="&#xdb;" horiz-adv-x="2013" d="M180 543q0 602 103 1065q12 61 39 88q102 12 127 12q141 0 141 -100q0 -14 -6 -31q-135 -518 -135 -1061q0 -150 6 -197q8 -80 32 -172q35 -135 74 -135q4 0 17 13q152 168 383 571q33 55 99 171t232 478q47 88 117 264q31 98 39 154q59 20 119 20q74 0 121 -34l20 -41 v-37q0 -357 76 -828q74 -428 151 -856l-10 -37q-49 -43 -76 -57q-47 -29 -88 -35q-53 82 -80 222q-20 115 -41 233q-145 600 -186 1200q-27 -27 -80 -172l-86 -190q-63 -160 -209 -473q-35 -59 -108 -181q-18 -37 -53 -110q-127 -233 -246 -320q-43 -33 -115 -33 q-115 0 -203 68q-174 140 -174 541zM622 1911q0 41 22.5 85t267.5 244.5t280 200.5q14 0 47 -23q141 -104 239 -333q14 -35 15 -39q0 -14 -23.5 -58.5t-38.5 -44.5q-10 0 -13 7.5t-5 13.5l-6 6q-229 283 -264 283q-39 0 -265 -183l-155 -127q-74 -59 -86 -59q-15 0 -15 27z " />
<glyph unicode="&#xdc;" horiz-adv-x="2013" d="M180 543q0 602 103 1065q12 61 39 88q102 12 127 12q141 0 141 -100q0 -14 -6 -31q-135 -518 -135 -1061q0 -150 6 -197q8 -80 32 -172q35 -135 74 -135q4 0 17 13q152 168 383 571q33 55 99 171t232 478q47 88 117 264q31 98 39 154q59 20 119 20q74 0 121 -34l20 -41 v-37q0 -357 76 -828q74 -428 151 -856l-10 -37q-49 -43 -76 -57q-47 -29 -88 -35q-53 82 -80 222q-20 115 -41 233q-145 600 -186 1200q-27 -27 -80 -172l-86 -190q-63 -160 -209 -473q-35 -59 -108 -181q-18 -37 -53 -110q-127 -233 -246 -320q-43 -33 -115 -33 q-115 0 -203 68q-174 140 -174 541zM723 1989v6q-4 41 80 143q63 -14 70 -14q35 -14 53 -45q-12 -53 -26.5 -101t-90.5 -48q-57 0 -86 59zM1174 1991q0 98 61 147q51 -12 101 -22q57 -20 57 -74q0 -25 -23.5 -48.5t-44.5 -41.5q-37 -41 -137 -41q-14 37 -14 80z" />
<glyph unicode="&#xdf;" horiz-adv-x="1642" d="M92 1094l27 14l229 -16q27 301 141 602q127 338 314 518q82 82 212 128t247 38q106 -10 172 -43q281 -141 280 -412q0 -215 -168 -455q-80 -113 -225 -239q-123 -104 -250 -211h14q119 -6 248 -65.5t215 -143.5q100 -98 88 -260q-20 -272 -342 -490q-301 -207 -577 -188 q-125 8 -268 74q43 43 73 41q47 -4 41 -4q256 31 451 157q211 135 307 359q20 53 25 94q8 111 -52 166q-100 98 -223 106q-33 2 -99.5 -6t-101.5 -6q-53 6 -112 47q-68 51 -76 113q63 41 94 41q643 313 785 782q16 57 16 121q0 129 -76 217q-86 94 -229 106q-104 6 -187 -32 q-174 -82 -292 -271q-84 -135 -170 -379q-72 -203 -105 -479q-10 -100 -37 -489q-25 -252 -53 -758q-25 -27 -57 -27q-23 0 -103 37q-2 440 56 1024q-84 18 -205 53q-58 25 -27 136z" />
<glyph unicode="&#xe0;" d="M80 195q0 39 26 133q59 217 228.5 417.5t374.5 278.5q164 57 247 57q29 0 103 -28q35 -12 71.5 -25.5t61.5 -48.5q12 -12 12 -21q0 -6 -16.5 -20t-20.5 -27q-14 -41 -14 -370q0 -184 35 -338q12 -29 31 -90v-37q0 -41 -27 -49q-72 74 -125 280q-43 180 -43 309l-18 13 q-102 -162 -203 -322q-131 -180 -289 -235q-137 -137 -240 -138q-88 0 -145 91q-49 76 -49 170zM229 147l86 -53q188 88 369 287q35 37 299 369l-90 53q-215 -45 -417 -244t-247 -412zM457 1700q27 74 168 70q127 -106 455 -424l8 -35h-74q-33 0 -190 84q-285 147 -367 305z " />
<glyph unicode="&#xe1;" d="M80 195q0 39 26 133q59 217 228.5 417.5t374.5 278.5q164 57 247 57q29 0 103 -28q35 -12 71.5 -25.5t61.5 -48.5q12 -12 12 -21q0 -6 -16.5 -20t-20.5 -27q-14 -41 -14 -370q0 -184 35 -338q12 -29 31 -90v-37q0 -41 -27 -49q-72 74 -125 280q-43 180 -43 309l-18 13 q-102 -162 -203 -322q-131 -180 -289 -235q-137 -137 -240 -138q-88 0 -145 91q-49 76 -49 170zM229 147l86 -53q188 88 369 287q35 37 299 369l-90 53q-215 -45 -417 -244t-247 -412zM819 1313l11 35q147 145 456 424q139 4 168 -70q-86 -158 -368 -305q-160 -84 -189 -84 h-78z" />
<glyph unicode="&#xe2;" d="M80 195q0 39 26 133q59 217 228.5 417.5t374.5 278.5q164 57 247 57q29 0 103 -28q35 -12 71.5 -25.5t61.5 -48.5q12 -12 12 -21q0 -6 -16.5 -20t-20.5 -27q-14 -41 -14 -370q0 -184 35 -338q12 -29 31 -90v-37q0 -41 -27 -49q-72 74 -125 280q-43 180 -43 309l-18 13 q-102 -162 -203 -322q-131 -180 -289 -235q-137 -137 -240 -138q-88 0 -145 91q-49 76 -49 170zM229 147l86 -53q188 88 369 287q35 37 299 369l-90 53q-215 -45 -417 -244t-247 -412zM383 1207q0 41 22.5 85t267.5 244.5t280 200.5q14 0 47 -23q141 -104 239 -333 q14 -35 15 -39q0 -14 -23.5 -58.5t-38.5 -44.5q-10 0 -13 7.5t-5 13.5l-6 6q-229 283 -264 283q-39 0 -265 -183l-155 -127q-74 -59 -86 -59q-15 0 -15 27z" />
<glyph unicode="&#xe3;" d="M80 195q0 39 26 133q59 217 228.5 417.5t374.5 278.5q164 57 247 57q29 0 103 -28q35 -12 71.5 -25.5t61.5 -48.5q12 -12 12 -21q0 -6 -16.5 -20t-20.5 -27q-14 -41 -14 -370q0 -184 35 -338q12 -29 31 -90v-37q0 -41 -27 -49q-72 74 -125 280q-43 180 -43 309l-18 13 q-102 -162 -203 -322q-131 -180 -289 -235q-137 -137 -240 -138q-88 0 -145 91q-49 76 -49 170zM229 147l86 -53q188 88 369 287q35 37 299 369l-90 53q-215 -45 -417 -244t-247 -412zM420 1425q29 80 129 167t180 87q88 0 143 -78q47 -70 94 -141q25 -8 58 -8 q111 0 250 137l-2 -4q0 -12 5 -36t5 -36q0 -6 -32 -47t-38 -59q-14 -39 -74.5 -67t-105.5 -28q-92 0 -147 72q-45 70 -88 141h-27q-45 0 -133 -49t-115 -88q-4 -29 -35 -78h-10q-35 0 -41 48q-8 57 -16 67z" />
<glyph unicode="&#xe4;" d="M80 195q0 39 26 133q59 217 228.5 417.5t374.5 278.5q164 57 247 57q29 0 103 -28q35 -12 71.5 -25.5t61.5 -48.5q12 -12 12 -21q0 -6 -16.5 -20t-20.5 -27q-14 -41 -14 -370q0 -184 35 -338q12 -29 31 -90v-37q0 -41 -27 -49q-72 74 -125 280q-43 180 -43 309l-18 13 q-102 -162 -203 -322q-131 -180 -289 -235q-137 -137 -240 -138q-88 0 -145 91q-49 76 -49 170zM229 147l86 -53q188 88 369 287q35 37 299 369l-90 53q-215 -45 -417 -244t-247 -412zM563 1401v6q-4 41 80 143q63 -14 70 -14q35 -14 53 -45q-12 -53 -26.5 -101t-90.5 -48 q-57 0 -86 59zM1014 1403q0 98 61 147q51 -12 101 -22q57 -20 57 -74q0 -25 -23.5 -48.5t-44.5 -41.5q-37 -41 -137 -41q-14 37 -14 80z" />
<glyph unicode="&#xe5;" d="M80 195q0 39 26 133q59 217 228.5 417.5t374.5 278.5q164 57 247 57q29 0 103 -28q35 -12 71.5 -25.5t61.5 -48.5q12 -12 12 -21q0 -6 -16.5 -20t-20.5 -27q-14 -41 -14 -370q0 -184 35 -338q12 -29 31 -90v-37q0 -41 -27 -49q-72 74 -125 280q-43 180 -43 309l-18 13 q-102 -162 -203 -322q-131 -180 -289 -235q-137 -137 -240 -138q-88 0 -145 91q-49 76 -49 170zM229 147l86 -53q188 88 369 287q35 37 299 369l-90 53q-215 -45 -417 -244t-247 -412zM645 1509q0 106 75 182t179 76q106 0 181 -75.5t75 -182.5q0 -102 -74.5 -178 t-181.5 -76q-104 0 -179 76t-75 178zM725 1509q0 -70 51 -122t123 -52q74 0 125 52.5t51 121.5q0 74 -51 126.5t-125 52.5q-72 0 -123 -52.5t-51 -126.5z" />
<glyph unicode="&#xe6;" horiz-adv-x="2052" d="M68 270q0 31 24 123q57 197 213 377t340 254q147 53 221 53q39 0 127 -33q100 -39 101 -71q0 -8 -17.5 -25.5t-17.5 -27.5q-2 -53 -15 -150q96 190 295 338q215 160 412 160q47 0 86 -2q147 -125 148 -260q0 -33 -7 -62q-76 -295 -583 -452q-166 -51 -250 -52 q-39 0 -74 9q0 -367 285 -367q74 0 174 24q0 -45 -88 -77q-76 -29 -129 -29q-152 0 -248 119q-86 104 -94 262q-20 20 -19 270l-41 21q-92 -147 -182 -295q-119 -164 -260 -217q-133 -119 -215 -119q-78 0 -135 80q-51 71 -51 149zM209 229l74 -47q172 78 335 260 q12 12 273 336l-78 45q-203 -41 -381 -215t-223 -379zM1141 678q211 12 432 125q258 131 295 309q-10 23 -53 33q-63 8 -72 14q-260 -12 -471 -266q-63 -74 -84 -100q-41 -64 -47 -115z" />
<glyph unicode="&#xe7;" horiz-adv-x="1374" d="M82 309q0 225 144.5 436t355.5 308q88 41 315 41q268 0 338 -138v-22q0 -51 -68 -51q-35 0 -133 51q-8 18 -28 39h-11q-213 0 -403 -162q-174 -147 -264 -362q-39 -94 -39 -181q0 -80 56 -161.5t132 -81.5q225 0 590 202q154 86 233 144q2 -23 -26.5 -55.5t-28.5 -53.5 q-328 -354 -688 -354q-150 0 -238 67q-125 98 -159 144q-78 88 -78 190zM104 -606q0 23 35 14q121 -35 209 -35q180 0 180 129q0 74 -32 109q-47 47 -181 63q-31 2 -30 31q0 23 22 47q131 147 207 193l53 -8q18 -4 60 -5q-100 -74 -152 -141q-12 -14 0 -35q12 -20 51 -24 q227 -27 228 -209q0 -47 -19 -90q-74 -174 -330 -172q-131 2 -266 86q-35 22 -35 47z" />
<glyph unicode="&#xe8;" horiz-adv-x="1228" d="M154 440q0 276 217 527q217 242 493 299q14 2 76 2q45 0 86 -2q152 -131 152 -262q0 -31 -11 -60q-80 -299 -583 -452q-168 -51 -250 -52q-37 0 -72 9q0 -367 283 -367q74 0 172 24q0 -27 -29 -45q-49 -27 -51 -28q-66 -33 -135 -33q-166 0 -262 141q-86 125 -86 299z M328 678q209 12 434 125q262 131 297 309q-14 23 -55 33q-57 8 -70 14q-258 -12 -473 -266q-72 -82 -84 -100q-43 -64 -49 -115zM438 1876q27 74 168 70q127 -106 455 -424l8 -35h-74q-33 0 -190 84q-285 147 -367 305z" />
<glyph unicode="&#xe9;" horiz-adv-x="1228" d="M154 440q0 276 217 527q217 242 493 299q14 2 76 2q45 0 86 -2q152 -131 152 -262q0 -31 -11 -60q-80 -299 -583 -452q-168 -51 -250 -52q-37 0 -72 9q0 -367 283 -367q74 0 172 24q0 -27 -29 -45q-49 -27 -51 -28q-66 -33 -135 -33q-166 0 -262 141q-86 125 -86 299z M328 678q209 12 434 125q262 131 297 309q-14 23 -55 33q-57 8 -70 14q-258 -12 -473 -266q-72 -82 -84 -100q-43 -64 -49 -115zM798 1522l11 35q147 145 456 424q139 4 168 -70q-86 -158 -368 -305q-160 -84 -189 -84h-78z" />
<glyph unicode="&#xea;" horiz-adv-x="1228" d="M154 440q0 276 217 527q217 242 493 299q14 2 76 2q45 0 86 -2q152 -131 152 -262q0 -31 -11 -60q-80 -299 -583 -452q-168 -51 -250 -52q-37 0 -72 9q0 -367 283 -367q74 0 172 24q0 -27 -29 -45q-49 -27 -51 -28q-66 -33 -135 -33q-166 0 -262 141q-86 125 -86 299z M328 678q209 12 434 125q262 131 297 309q-14 23 -55 33q-57 8 -70 14q-258 -12 -473 -266q-72 -82 -84 -100q-43 -64 -49 -115zM348 1360q0 41 22.5 85t267.5 244.5t280 200.5q14 0 47 -23q141 -104 239 -333q14 -35 15 -39q0 -14 -23.5 -58.5t-38.5 -44.5q-10 0 -13 7.5 t-5 13.5l-6 6q-229 283 -264 283q-39 0 -265 -183l-155 -127q-74 -59 -86 -59q-15 0 -15 27z" />
<glyph unicode="&#xeb;" horiz-adv-x="1228" d="M154 440q0 276 217 527q217 242 493 299q14 2 76 2q45 0 86 -2q152 -131 152 -262q0 -31 -11 -60q-80 -299 -583 -452q-168 -51 -250 -52q-37 0 -72 9q0 -367 283 -367q74 0 172 24q0 -27 -29 -45q-49 -27 -51 -28q-66 -33 -135 -33q-166 0 -262 141q-86 125 -86 299z M328 678q209 12 434 125q262 131 297 309q-14 23 -55 33q-57 8 -70 14q-258 -12 -473 -266q-72 -82 -84 -100q-43 -64 -49 -115zM516 1555v6q-4 41 80 143q63 -14 70 -14q35 -14 53 -45q-12 -53 -26.5 -101t-90.5 -48q-57 0 -86 59zM967 1557q0 98 61 147q51 -12 101 -22 q57 -20 57 -74q0 -25 -23.5 -48.5t-44.5 -41.5q-37 -41 -137 -41q-14 37 -14 80z" />
<glyph unicode="&#xec;" horiz-adv-x="645" d="M197 289q0 221 73 561q27 2 58 2q100 0 141 -55v-84q0 27 -26.5 -104.5t-53.5 -260.5q-41 -168 -106 -233q-12 -6 -23 -6q-63 0 -63 180zM-72 1495q27 74 168 70q127 -106 455 -424l8 -35h-74q-33 0 -190 84q-285 147 -367 305z" />
<glyph unicode="&#xed;" horiz-adv-x="645" d="M197 289q0 221 73 561q27 2 58 2q100 0 141 -55v-84q0 27 -26.5 -104.5t-53.5 -260.5q-41 -168 -106 -233q-12 -6 -23 -6q-63 0 -63 180zM229 1143l11 35q147 145 456 424q139 4 168 -70q-86 -158 -368 -305q-160 -84 -189 -84h-78z" />
<glyph unicode="&#xee;" horiz-adv-x="645" d="M197 289q0 221 73 561q27 2 58 2q100 0 141 -55v-84q0 27 -26.5 -104.5t-53.5 -260.5q-41 -168 -106 -233q-12 -6 -23 -6q-63 0 -63 180zM-105 971q0 41 22.5 85t267.5 244.5t280 200.5q14 0 47 -23q141 -104 239 -333q14 -35 15 -39q0 -14 -23.5 -58.5t-38.5 -44.5 q-10 0 -13 7.5t-5 13.5l-6 6q-229 283 -264 283q-39 0 -265 -183l-155 -127q-74 -59 -86 -59q-15 0 -15 27z" />
<glyph unicode="&#xef;" horiz-adv-x="645" d="M197 289q0 221 73 561q27 2 58 2q100 0 141 -55v-84q0 27 -26.5 -104.5t-53.5 -260.5q-41 -168 -106 -233q-12 -6 -23 -6q-63 0 -63 180zM71 1266v6q-4 41 80 143q63 -14 70 -14q35 -14 53 -45q-12 -53 -26.5 -101t-90.5 -48q-57 0 -86 59zM522 1268q0 98 61 147 q51 -12 101 -22q57 -20 57 -74q0 -25 -23.5 -48.5t-44.5 -41.5q-37 -41 -137 -41q-14 37 -14 80z" />
<glyph unicode="&#xf0;" horiz-adv-x="2949" />
<glyph unicode="&#xf1;" horiz-adv-x="1404" d="M147 227q6 129 33 390.5t33 390.5q23 12 55 12q133 0 172 -76q0 -66 -18.5 -187.5t-18.5 -185.5h19q233 258 403 258q182 0 334 -180q123 -147 176 -348q45 -41 45 -65q0 -47 -65 -48q-16 0 -35 7q-82 61 -133 206q-61 164 -101 213.5t-84 96.5t-106 47q-80 0 -174 -80 q-68 -59 -168 -174q-121 -133 -143 -185q-8 -23 -9 -124q0 -7 1 -14q0 -70 -39 -95q-14 -4 -27 -4q-47 0 -84 57q-58 76 -66 88zM387 1278q29 80 129 167t180 87q88 0 143 -78q47 -70 94 -141q25 -8 58 -8q111 0 250 137l-2 -4q0 -12 5 -36t5 -36q0 -6 -32 -47t-38 -59 q-14 -39 -74.5 -67t-105.5 -28q-92 0 -147 72q-45 70 -88 141h-27q-45 0 -133 -49t-115 -88q-4 -29 -35 -78h-10q-35 0 -41 48q-8 57 -16 67z" />
<glyph unicode="&#xf2;" horiz-adv-x="1196" d="M82 502q0 117 39 233q-35 70 -35 82q0 47 64 76q80 41 96 63q49 78 102 156q70 88 154 88q129 0 168 -70q-8 -45 -52 -104q20 -14 158 -47q123 -35 180 -68q147 -92 148 -321q0 -188 -193.5 -402.5t-380.5 -214.5q-197 0 -327 172q-121 156 -121 357zM322 381 q0 -154 73 -266q27 -6 54 -6q96 0 161 41q18 12 99 79q262 221 262 437q0 66 -33 127q-176 -35 -530 -88q-39 -39 -66 -154q-20 -96 -20 -170zM469 838q207 14 369 55q-51 59 -273 59q-29 0 -57 -47q-21 -34 -39 -67zM244 1714q27 74 168 70q127 -106 455 -424l8 -35h-74 q-33 0 -190 84q-285 147 -367 305z" />
<glyph unicode="&#xf3;" horiz-adv-x="1196" d="M82 502q0 117 39 233q-35 70 -35 82q0 47 64 76q80 41 96 63q49 78 102 156q70 88 154 88q129 0 168 -70q-8 -45 -52 -104q20 -14 158 -47q123 -35 180 -68q147 -92 148 -321q0 -188 -193.5 -402.5t-380.5 -214.5q-197 0 -327 172q-121 156 -121 357zM322 381 q0 -154 73 -266q27 -6 54 -6q96 0 161 41q18 12 99 79q262 221 262 437q0 66 -33 127q-176 -35 -530 -88q-39 -39 -66 -154q-20 -96 -20 -170zM469 838q207 14 369 55q-51 59 -273 59q-29 0 -57 -47q-21 -34 -39 -67zM590 1352l11 35q147 145 456 424q139 4 168 -70 q-86 -158 -368 -305q-160 -84 -189 -84h-78z" />
<glyph unicode="&#xf4;" horiz-adv-x="1196" d="M82 502q0 117 39 233q-35 70 -35 82q0 47 64 76q80 41 96 63q49 78 102 156q70 88 154 88q129 0 168 -70q-8 -45 -52 -104q20 -14 158 -47q123 -35 180 -68q147 -92 148 -321q0 -188 -193.5 -402.5t-380.5 -214.5q-197 0 -327 172q-121 156 -121 357zM322 381 q0 -154 73 -266q27 -6 54 -6q96 0 161 41q18 12 99 79q262 221 262 437q0 66 -33 127q-176 -35 -530 -88q-39 -39 -66 -154q-20 -96 -20 -170zM469 838q207 14 369 55q-51 59 -273 59q-29 0 -57 -47q-21 -34 -39 -67zM223 1307q0 41 22.5 85t267.5 244.5t280 200.5 q14 0 47 -23q141 -104 239 -333q14 -35 15 -39q0 -14 -23.5 -58.5t-38.5 -44.5q-10 0 -13 7.5t-5 13.5l-6 6q-229 283 -264 283q-39 0 -265 -183l-155 -127q-74 -59 -86 -59q-15 0 -15 27z" />
<glyph unicode="&#xf5;" horiz-adv-x="1196" d="M82 502q0 117 39 233q-35 70 -35 82q0 47 64 76q80 41 96 63q49 78 102 156q70 88 154 88q129 0 168 -70q-8 -45 -52 -104q20 -14 158 -47q123 -35 180 -68q147 -92 148 -321q0 -188 -193.5 -402.5t-380.5 -214.5q-197 0 -327 172q-121 156 -121 357zM322 381 q0 -154 73 -266q27 -6 54 -6q96 0 161 41q18 12 99 79q262 221 262 437q0 66 -33 127q-176 -35 -530 -88q-39 -39 -66 -154q-20 -96 -20 -170zM469 838q207 14 369 55q-51 59 -273 59q-29 0 -57 -47q-21 -34 -39 -67zM254 1468q29 80 129 167t180 87q88 0 143 -78 q47 -70 94 -141q25 -8 58 -8q111 0 250 137l-2 -4q0 -12 5 -36t5 -36q0 -6 -32 -47t-38 -59q-14 -39 -74.5 -67t-105.5 -28q-92 0 -147 72q-45 70 -88 141h-27q-45 0 -133 -49t-115 -88q-4 -29 -35 -78h-10q-35 0 -41 48q-8 57 -16 67z" />
<glyph unicode="&#xf6;" horiz-adv-x="1196" d="M82 502q0 117 39 233q-35 70 -35 82q0 47 64 76q80 41 96 63q49 78 102 156q70 88 154 88q129 0 168 -70q-8 -45 -52 -104q20 -14 158 -47q123 -35 180 -68q147 -92 148 -321q0 -188 -193.5 -402.5t-380.5 -214.5q-197 0 -327 172q-121 156 -121 357zM322 381 q0 -154 73 -266q27 -6 54 -6q96 0 161 41q18 12 99 79q262 221 262 437q0 66 -33 127q-176 -35 -530 -88q-39 -39 -66 -154q-20 -96 -20 -170zM469 838q207 14 369 55q-51 59 -273 59q-29 0 -57 -47q-21 -34 -39 -67zM348 1475v6q-4 41 80 143q63 -14 70 -14q35 -14 53 -45 q-12 -53 -26.5 -101t-90.5 -48q-57 0 -86 59zM799 1477q0 98 61 147q51 -12 101 -22q57 -20 57 -74q0 -25 -23.5 -48.5t-44.5 -41.5q-37 -41 -137 -41q-14 37 -14 80z" />
<glyph unicode="&#xf7;" horiz-adv-x="1423" d="M88 623q4 8 9 55t18 59h65l221 -8h168q-8 0 230 -10q39 4 78 0q53 -2 79.5 -2t87 -3t91.5 -3h49h24q10 0 74 6q45 6 33 6q25 0 18 -27q-4 -14 -61 -59q-25 -2 -61.5 -12.5t-159.5 -20.5q-20 0 -95 -6q-113 -6 -172 -6q-45 -4 -112 -4q-14 0 -49 2h-49h-64q-55 -2 -96 -2 q-104 0 -207 -4h-80q-19 0 -39 39zM522 141q0 113 82 183q59 -16 119 -31q68 -31 68 -96q0 -29 -26 -55.5t-48 -49.5q-45 -47 -176 -47q-19 53 -19 96zM582 1073q-4 57 28 103l66 90q86 -18 96 -21q47 -18 74 -67q-8 -27 -12.5 -66t-14.5 -59q-27 -59 -127 -60q-27 0 -53 6 q-30 27 -57 74z" />
<glyph unicode="&#xf8;" horiz-adv-x="1200" d="M41 -86q53 92 109 152q33 29 63 63q-131 160 -131 373q0 117 39 233q45 104 125 221q49 78 102 156q70 88 154 88q129 0 168 -70q-8 -45 -52 -104q20 -14 158 -47q88 -23 129 -41q92 100 168 174q61 2 62 -35q0 -27 -35 -71q-47 -53 -109 -121q113 -106 113 -295 q0 -188 -193.5 -402.5t-380.5 -214.5q-135 0 -247 88q-16 -37 -71.5 -96t-76.5 -94q-20 -18 -47 -16q-33 4 -37 21.5t-10 37.5zM322 381q0 -59 12 -113q74 94 229 277q94 111 289 334l-14 14q-51 59 -273 59q-31 0 -61 -47q-20 -35 -40 -68.5t-67 -123.5q-27 -55 -51 -164 t-24 -168zM362 172q14 -31 33 -57q27 -6 54 -6q96 0 161 41q18 12 99 79q262 221 262 437q0 66 -33 127q-6 6 -14 16l-121 -131q-294 -324 -441 -506z" />
<glyph unicode="&#xf9;" horiz-adv-x="1443" d="M195 360q0 248 88 471q45 12 88 13q84 0 157 -39q12 -14 13 -43q0 -78 -61.5 -219.5t-61.5 -220.5q0 -33 6 -66q154 57 326 227q137 145 276 293q14 59 30.5 124t55.5 106q55 -20 113 -39q68 -23 84 -74q-8 -135 -80 -569q-8 -49 -74 -164q6 -14 6 -31q0 -16 -23.5 -48 t-39.5 -32q20 0 -39 12q-59 106 -60 275q0 31 5 106q2 68 2 107v49h-35q-115 -137 -322 -309q-47 -35 -139 -113q-49 -47 -88 -47q-74 0 -150.5 78.5t-76.5 152.5zM363 1540q27 74 168 70q127 -106 455 -424l8 -35h-74q-33 0 -190 84q-285 147 -367 305z" />
<glyph unicode="&#xfa;" horiz-adv-x="1443" d="M195 360q0 248 88 471q45 12 88 13q84 0 157 -39q12 -14 13 -43q0 -78 -61.5 -219.5t-61.5 -220.5q0 -33 6 -66q154 57 326 227q137 145 276 293q14 59 30.5 124t55.5 106q55 -20 113 -39q68 -23 84 -74q-8 -135 -80 -569q-8 -49 -74 -164q6 -14 6 -31q0 -16 -23.5 -48 t-39.5 -32q20 0 -39 12q-59 106 -60 275q0 31 5 106q2 68 2 107v49h-35q-115 -137 -322 -309q-47 -35 -139 -113q-49 -47 -88 -47q-74 0 -150.5 78.5t-76.5 152.5zM704 1165l11 35q147 145 456 424q139 4 168 -70q-86 -158 -368 -305q-160 -84 -189 -84h-78z" />
<glyph unicode="&#xfb;" horiz-adv-x="1443" d="M195 360q0 248 88 471q45 12 88 13q84 0 157 -39q12 -14 13 -43q0 -78 -61.5 -219.5t-61.5 -220.5q0 -33 6 -66q154 57 326 227q137 145 276 293q14 59 30.5 124t55.5 106q55 -20 113 -39q68 -23 84 -74q-8 -135 -80 -569q-8 -49 -74 -164q6 -14 6 -31q0 -16 -23.5 -48 t-39.5 -32q20 0 -39 12q-59 106 -60 275q0 31 5 106q2 68 2 107v49h-35q-115 -137 -322 -309q-47 -35 -139 -113q-49 -47 -88 -47q-74 0 -150.5 78.5t-76.5 152.5zM391 1194q0 41 22.5 85t267.5 244.5t280 200.5q14 0 47 -23q141 -104 239 -333q14 -35 15 -39 q0 -14 -23.5 -58.5t-38.5 -44.5q-10 0 -13 7.5t-5 13.5l-6 6q-229 283 -264 283q-39 0 -265 -183l-155 -127q-74 -59 -86 -59q-15 0 -15 27z" />
<glyph unicode="&#xfc;" horiz-adv-x="1443" d="M195 360q0 248 88 471q45 12 88 13q84 0 157 -39q12 -14 13 -43q0 -78 -61.5 -219.5t-61.5 -220.5q0 -33 6 -66q154 57 326 227q137 145 276 293q14 59 30.5 124t55.5 106q55 -20 113 -39q68 -23 84 -74q-8 -135 -80 -569q-8 -49 -74 -164q6 -14 6 -31q0 -16 -23.5 -48 t-39.5 -32q20 0 -39 12q-59 106 -60 275q0 31 5 106q2 68 2 107v49h-35q-115 -137 -322 -309q-47 -35 -139 -113q-49 -47 -88 -47q-74 0 -150.5 78.5t-76.5 152.5zM508 1266v6q-4 41 80 143q63 -14 70 -14q35 -14 53 -45q-12 -53 -26.5 -101t-90.5 -48q-57 0 -86 59z M959 1268q0 98 61 147q51 -12 101 -22q57 -20 57 -74q0 -25 -23.5 -48.5t-44.5 -41.5q-37 -41 -137 -41q-14 37 -14 80z" />
<glyph unicode="&#xff;" horiz-adv-x="1609" d="M-41 -918q14 420 348 795q303 344 725 494l8 10q-2 37 -2 82q0 39 3 120t3 119q0 117 -20 218q-59 -80 -193 -215q-53 -100 -241 -238q-55 -45 -113 -86q-74 -51 -123 -51q-94 0 -141 104q-33 76 -33 184q0 279 148 461q182 -20 182 -149q0 -72 -58.5 -203t-62.5 -197 q18 -8 35 -8q37 0 125 49q117 66 263 214.5t220 273.5q68 -2 88 -86q33 -250 72 -504q14 -14 41 -14q55 0 188 40t203 42q-57 -59 -214 -120t-206 -110q10 -115 10 -225q0 -860 -596 -1260q-127 -84 -258 -84q-147 0 -251 109q-70 73 -150 235zM98 -893q0 -215 176 -215 q113 0 222 74q268 178 413 506q135 301 135 647q0 55 -4 117q-358 -135 -637 -439q-305 -340 -305 -690zM448 1413v6q-4 41 80 143q63 -14 70 -14q35 -14 53 -45q-12 -53 -26.5 -101t-90.5 -48q-57 0 -86 59zM899 1415q0 98 61 147q51 -12 101 -22q57 -20 57 -74 q0 -25 -23.5 -48.5t-44.5 -41.5q-37 -41 -137 -41q-14 37 -14 80z" />
<glyph unicode="&#x131;" horiz-adv-x="645" d="M197 289q0 221 73 561q27 2 58 2q100 0 141 -55v-84q0 27 -26.5 -104.5t-53.5 -260.5q-41 -168 -106 -233q-12 -6 -23 -6q-63 0 -63 180z" />
<glyph unicode="&#x152;" horiz-adv-x="3244" d="M129 791q0 303 246 690q6 35 69 80l70 61q150 133 250 166q86 -6 116.5 -29.5t49.5 -107.5q326 0 526 -35q289 -55 481 -203q6 49 7 148q0 8 -53.5 20t-53.5 74q0 20 18 33q201 -6 609.5 -3t613.5 -4q16 -27 17 -51q0 -20 -13 -37q-281 -6 -837 -26l-15 -21v-237l15 -11 h67q59 0 173 2.5t163 2.5q88 0 160 -5q12 -16 12 -45q0 -47 -27 -55q2 2 -67 2q-25 0 -39 -8h-33q-133 -12 -401 -18q-12 6 -33 -15q-2 -12 -2 -287q0 -395 33 -847q6 -6 49 -11h12q74 0 240 -8q152 -8 237 -8q61 0 394 2q14 14 26 14q8 0 29 -6q12 -27 12 -55 q0 -86 -31 -86h-14q-2 20 -22 53q-125 -12 -396 -12q-86 0 -254 5t-249 5q-18 0 -18.5 -31.5t-53.5 -40.5q-39 -6 -76 -8q-45 8 -86 17q-53 12 -74 43q-45 4 -61 14q-39 12 -47 35q0 6 -4 24v21q0 23 12 33q16 -4 41 -5q8 0 29 5h30l-12 284q-403 -383 -866 -383 q-319 0 -541 150q-428 287 -428 715zM389 655q0 -301 227 -487q121 -100 318 -100q139 0 338 77q55 20 164 74q141 84 280 264q129 172 193 336q29 86 28 193q0 143 -92 270q-23 33 -76 100q-193 201 -639 201q-66 0 -239 -6q-215 -182 -348 -410q-154 -258 -154 -512z" />
<glyph unicode="&#x153;" horiz-adv-x="2105" d="M88 522q0 121 35 248q-31 80 -31 90q0 51 68 84q82 43 96 64q115 170 131 186q90 104 188 104q41 0 94.5 -22.5t69.5 -54.5q-4 -74 -61 -154q10 -8 141 -35q238 -53 301 -209q104 174 289 303q205 141 389 142q45 0 86 -2q152 -131 152 -262q0 -31 -11 -60 q-82 -299 -583 -452q-164 -51 -244 -52q-39 0 -74 9l-4 -9q0 -358 283 -358q74 0 172 24q0 -27 -29 -45l-51 -28q-66 -33 -135 -33q-260 0 -328 297q-236 -324 -483 -324q-201 0 -336 181q-125 165 -125 368zM356 334q0 -125 60 -213q27 -6 53 -6q106 0 174 45 q147 96 250 229q125 160 125 307q0 66 -27 135q-94 -6 -256 -40q-184 -39 -258 -48l-26 -26q-95 -240 -95 -383zM549 877q66 2 334 67q-33 35 -111 47q-61 2 -121 8q-35 -12 -58.5 -49.5t-43.5 -72.5zM1186 678q209 12 434 125q262 131 297 309q-14 23 -55 33q-57 8 -68 14 q-264 -12 -475 -266q-63 -74 -80 -100q-45 -64 -53 -115z" />
<glyph unicode="&#x178;" horiz-adv-x="1536" d="M106 1649q0 113 29 219q61 -4 92 -10q53 -14 68 -54q-6 -123 -6 -180q0 -205 87 -372t134 -226q92 -109 215 -127q106 152 328 569q199 369 354 555q68 0 121 -30q33 -14 41 -44t14 -59q-14 -94 -94 -219q-68 -98 -135 -203q-98 -166 -273 -503q4 -8 17 -9q10 0 37 15 q10 2 94 33q-55 -72 -197 -132q-72 -109 -268 -495q-223 -436 -340 -795q-10 -10 -23.5 -31.5t-52.5 -21.5q-66 0 -105.5 45t-74.5 92q18 41 55 127q219 569 461 1012q-8 31 -55 45q-37 14 -72 27q-207 109 -329 320.5t-122 451.5zM534 2189v6q-4 41 80 143q63 -14 70 -14 q35 -14 53 -45q-12 -53 -26.5 -101t-90.5 -48q-57 0 -86 59zM985 2191q0 98 61 147q51 -12 101 -22q57 -20 57 -74q0 -25 -23.5 -48.5t-44.5 -41.5q-37 -41 -137 -41q-14 37 -14 80z" />
<glyph unicode="&#x2c6;" horiz-adv-x="1046" d="M141 537q0 41 22.5 85t267.5 244.5t280 200.5q14 0 47 -23q141 -104 239 -333q14 -35 15 -39q0 -14 -23.5 -58.5t-38.5 -44.5q-10 0 -13 7.5t-5 13.5l-6 6q-229 283 -264 283q-39 0 -265 -183l-155 -127q-74 -59 -86 -59q-15 0 -15 27z" />
<glyph unicode="&#x2c7;" d="M618 1999q10 16 19 59q2 18 53 39h45q57 -61 115 -125q90 -94 117 -94q47 0 272 133q244 141 315 162l-14 -62q-272 -242 -620 -387h-54q-90 85 -248 275z" />
<glyph unicode="&#x2da;" d="M690 1509q0 106 75 182t179 76q106 0 181 -75.5t75 -182.5q0 -102 -74.5 -178t-181.5 -76q-104 0 -179 76t-75 178zM770 1509q0 -70 51 -122t123 -52q74 0 125 52.5t51 121.5q0 74 -51 126.5t-125 52.5q-72 0 -123 -52.5t-51 -126.5z" />
<glyph unicode="&#x2dc;" d="M541 1413q29 80 129 167t180 87q88 0 143 -78q47 -70 94 -141q25 -8 58 -8q111 0 250 137l-2 -4q0 -12 5 -36t5 -36q0 -6 -32 -47t-38 -59q-14 -39 -74.5 -67t-105.5 -28q-92 0 -147 72q-45 70 -88 141h-27q-45 0 -133 -49t-115 -88q-4 -29 -35 -78h-10q-35 0 -41 48 q-8 57 -16 67z" />
<glyph unicode="&#x2dd;" horiz-adv-x="1718" d="M866 1540l11 35q147 145 456 424q139 4 168 -70q-86 -158 -368 -305q-160 -84 -189 -84h-78zM1399 1540l8 35q147 145 457 424q139 4 168 -70q-86 -158 -369 -305q-160 -84 -188 -84h-76z" />
<glyph unicode="&#x2000;" horiz-adv-x="1294" />
<glyph unicode="&#x2001;" horiz-adv-x="2588" />
<glyph unicode="&#x2002;" horiz-adv-x="1294" />
<glyph unicode="&#x2003;" horiz-adv-x="2588" />
<glyph unicode="&#x2004;" horiz-adv-x="862" />
<glyph unicode="&#x2005;" horiz-adv-x="647" />
<glyph unicode="&#x2006;" horiz-adv-x="430" />
<glyph unicode="&#x2007;" horiz-adv-x="430" />
<glyph unicode="&#x2008;" horiz-adv-x="323" />
<glyph unicode="&#x2009;" horiz-adv-x="516" />
<glyph unicode="&#x200a;" horiz-adv-x="143" />
<glyph unicode="&#x2010;" horiz-adv-x="1351" d="M207 664l82 129q82 4 172 4q111 0 314.5 -7.5t316.5 -7.5q8 -6 31.5 -39.5t23.5 -44.5q0 -16 -39 -34q-55 -27 -57 -27q-158 -12 -494 -33q-74 -39 -309 -53q-45 19 -41 113z" />
<glyph unicode="&#x2011;" horiz-adv-x="1351" d="M207 664l82 129q82 4 172 4q111 0 314.5 -7.5t316.5 -7.5q8 -6 31.5 -39.5t23.5 -44.5q0 -16 -39 -34q-55 -27 -57 -27q-158 -12 -494 -33q-74 -39 -309 -53q-45 19 -41 113z" />
<glyph unicode="&#x2012;" horiz-adv-x="1351" d="M207 664l82 129q82 4 172 4q111 0 314.5 -7.5t316.5 -7.5q8 -6 31.5 -39.5t23.5 -44.5q0 -16 -39 -34q-55 -27 -57 -27q-158 -12 -494 -33q-74 -39 -309 -53q-45 19 -41 113z" />
<glyph unicode="&#x2013;" horiz-adv-x="1521" d="M240 549l61 96q61 4 162 4q129 0 390 -6t392 -6q10 -20 43 -55v-11q0 -10 -76 -57q-236 0 -708 -10q-55 -29 -234 -37q-34 10 -30 82z" />
<glyph unicode="&#x2014;" horiz-adv-x="1830" d="M240 549l61 96q61 4 195 4q176 0 531 -6t529 -6q45 -39 46 -68q0 -14 -74 -55q-193 -12 -514 -10q-375 4 -510 0q-59 -29 -234 -37q-34 10 -30 82z" />
<glyph unicode="&#x2018;" horiz-adv-x="618" d="M350 1858q0 141 117 141q51 0 82 -35q41 0 41 -53q0 -35 -33 -65.5t-33 -55.5q0 41 17 -322h-13q-178 126 -178 390z" />
<glyph unicode="&#x2019;" horiz-adv-x="618" d="M289 1468q104 319 104 326q0 16 -21.5 46t-21.5 44q0 80 53 68q25 14 58 14q49 0 86 -28.5t37 -75.5q0 -106 -95.5 -239.5t-191.5 -154.5h-8z" />
<glyph unicode="&#x201a;" horiz-adv-x="604" d="M188 -250q104 317 105 324q0 18 -19.5 49t-19.5 49v10q6 18 13 38t36 9q25 18 59 19q121 0 121 -109q0 -104 -95 -238t-191 -151h-9z" />
<glyph unicode="&#x201c;" horiz-adv-x="980" d="M315 1868q0 135 113 135q53 0 82 -33q45 0 45 -53q0 -35 -33 -66.5t-33 -54.5q0 41 15 -321h-12q-177 121 -177 393zM690 1868q0 135 115 135q53 0 80 -33q41 0 41 -45q0 -41 -33 -74.5t-33 -56.5q0 10 23 -319h-19q-82 59 -129 174q-45 106 -45 219z" />
<glyph unicode="&#x201d;" horiz-adv-x="989" d="M266 1475q104 319 105 321q0 20 -20.5 50t-20.5 50l5 15q5 14 12 32.5t34 12.5q23 16 59 16q121 0 121 -108q0 -102 -95 -236.5t-192 -152.5q-4 -2 -8 0zM655 1475q109 315 109 321q0 18 -20.5 49t-20.5 47q0 78 53 64q23 16 55 16q121 0 121 -110q0 -104 -91 -228.5 t-189 -158.5h-17z" />
<glyph unicode="&#x201e;" horiz-adv-x="989" d="M188 -250q104 317 105 324q0 18 -19.5 49t-19.5 49v10q6 18 13 38t36 9q25 18 59 19q121 0 121 -109q0 -104 -95 -238t-191 -151h-9zM578 -250q111 315 110 322q0 20 -21.5 49t-21.5 47q0 78 51 61q23 18 60 19q117 0 116 -113q0 -102 -90 -226t-186 -159h-18z" />
<glyph unicode="&#x2022;" horiz-adv-x="1327" d="M328 750q0 143 100 243.5t244 100.5q141 0 241.5 -101.5t100.5 -242.5t-100.5 -240.5t-241.5 -99.5q-143 0 -243.5 97.5t-100.5 242.5z" />
<glyph unicode="&#x2026;" horiz-adv-x="2334" d="M213 33q0 141 102 301q145 -31 187 -98v-15q0 -59 -97.5 -126.5t-158.5 -67.5q-19 0 -33 6zM991 33q0 141 103 301q145 -31 186 -98v-15q0 -59 -97.5 -126.5t-158.5 -67.5q-19 0 -33 6zM1769 33q0 141 103 301q145 -31 186 -98v-15q0 -59 -97 -126.5t-159 -67.5 q-19 0 -33 6z" />
<glyph unicode="&#x202f;" horiz-adv-x="516" />
<glyph unicode="&#x2030;" horiz-adv-x="4423" />
<glyph unicode="&#x2039;" horiz-adv-x="858" d="M123 522q207 276 391 449l78 -19q33 -14 33 -69l-7 -33q-152 -139 -335 -328q131 -342 274 -461v-12h-35q-239 123 -399 473z" />
<glyph unicode="&#x203a;" horiz-adv-x="813" d="M174 1006l21 -7q322 -287 423 -503v-54q-82 -115 -274 -321q-16 2 -31 2h-18q-8 -2 -14 -2q-14 0 -35 47v41q57 74 121 147q96 119 96 142q0 47 -129 237q-142 205 -160 271z" />
<glyph unicode="&#x2044;" horiz-adv-x="1394" d="M156 -68q39 176 139 333t229 423q164 342 211 426q143 268 285 541q172 309 315 522h27q92 0 92 -72q0 -20 -74 -168q-98 -170 -293 -507q-379 -668 -550 -1094q-2 -100 -66 -248q-74 -180 -84 -244q-27 -25 -72 -24q-55 0 -90.5 36.5t-68.5 75.5z" />
<glyph unicode="&#x205f;" horiz-adv-x="647" />
<glyph unicode="&#x2122;" horiz-adv-x="2648" d="M145 2052q37 20 365 12q14 12 41 15.5t39 9.5q86 0 127 -37q-8 0 297 0q37 -33 37 -67q0 -12 -7 -27q-14 -12 -24 -12q-12 0 -23.5 9t-13.5 9q-207 0 -248 -8q-10 -59 -22 -174q-4 -59 -4 -187q0 -250 28 -571q-45 -37 -88 -37q-39 0 -131 39q-4 33 -31 92q0 12 -4 33v27 q0 16 2 35.5t13 27.5q0 154 -6 457l4 6v4v8v33q12 240 14 209q-43 8 -115 8h-65h-60q-61 0 -96 4q-29 29 -29 82zM1174 2058q12 35 88 35q53 0 90 -14q55 -6 69 -49q4 -10 41 -74q113 -184 348 -543q61 76 208 228.5t218 246.5q10 16 35 17q12 0 36 -8.5t34 -8.5 q78 -27 78 -112q0 -25 -7.5 -72t-7.5 -70q0 -18 2 -59v-62q0 -25 -2 -204q-6 -127 0 -203q-10 -18 -32 -27q-45 6 -76 40t-60 69v307q0 195 2 277q-45 -43 -155.5 -171t-126.5 -153q-31 -41 -88 -127q2 -6 19.5 -29.5t17.5 -40.5q0 -39 -64 -39q-39 0 -166 56 q-100 158 -299 467q-2 -12 -22 -168q-8 -57 -25 -168q-23 -225 -22 -342h18q4 -6 8 -10l6 -9q16 -12 17 -24q0 -20 -27 -41h-22q-55 0 -129 53q4 47 43 86q8 197 18 395q14 227 41 396q-47 79 -106 155z" />
<glyph unicode="&#x220f;" horiz-adv-x="4423" />
<glyph unicode="&#x221a;" horiz-adv-x="4423" />
<glyph unicode="&#x222b;" horiz-adv-x="536" />
<glyph unicode="&#x25ca;" horiz-adv-x="4423" />
<glyph unicode="&#xe000;" horiz-adv-x="1060" d="M0 1060h1060v-1060h-1060v1060z" />
<glyph horiz-adv-x="0" />
<glyph horiz-adv-x="831" />
</font>
</defs>
</svg>
